<?xml version="1.0" encoding="UTF-8" standalone="no"?>
<svg
   xmlns:dc="http://purl.org/dc/elements/1.1/"
   xmlns:cc="http://creativecommons.org/ns#"
   xmlns:rdf="http://www.w3.org/1999/02/22-rdf-syntax-ns#"
   xmlns:svg="http://www.w3.org/2000/svg"
   xmlns="http://www.w3.org/2000/svg"
   xmlns:sodipodi="http://sodipodi.sourceforge.net/DTD/sodipodi-0.dtd"
   xmlns:inkscape="http://www.inkscape.org/namespaces/inkscape"
   viewBox="0 0 999.99999 629.71276"
   id="LogoMusic4"
   data-reactid=".1he9t9afc8.0.1.4.5.0.0.0.0.0"
   focusable="false"
   version="1.1"
   inkscape:version="0.48.5 r10040"
   width="100%"
   height="100%"
   sodipodi:docname="optimised-17.svg">
  <metadata
     id="metadata11">
    <rdf:RDF>
      <cc:Work
         rdf:about="">
        <dc:format>image/svg+xml</dc:format>
        <dc:type
           rdf:resource="http://purl.org/dc/dcmitype/StillImage" />
        <dc:title></dc:title>
      </cc:Work>
    </rdf:RDF>
  </metadata>
  <defs
     id="defs9" />
  <sodipodi:namedview
     pagecolor="#ffffff"
     bordercolor="#666666"
     borderopacity="1"
     objecttolerance="10"
     gridtolerance="10"
     guidetolerance="10"
     inkscape:pageopacity="0"
     inkscape:pageshadow="2"
     inkscape:window-width="1028"
     inkscape:window-height="972"
     id="namedview7"
     showgrid="false"
     fit-margin-top="0"
     fit-margin-left="0"
     fit-margin-right="0"
     fit-margin-bottom="0"
     inkscape:zoom="0.6513819"
     inkscape:cx="560.56659"
     inkscape:cy="236.86768"
     inkscape:window-x="899"
     inkscape:window-y="7"
     inkscape:window-maximized="0"
     inkscape:current-layer="LogoMusic4" />
  <g
     class="negative"
     data-reactid=".1he9t9afc8.0.1.4.5.0.0.0.0.0.0"
     id="g3"
     transform="matrix(1.925897,0,0,1.925897,0,-6.9870557e-6)"
     style="fill:none;stroke:none">
    <path
       d="m 86.787215,121.19097 c 0,0.49688 -0.174405,0.96488 -0.479614,1.34425 l -41.871033,51.9667 c -0.406284,0.49688 -1.017692,0.78962 -1.657837,0.78962 l -28.490417,0 c -1.802513,0 -2.806332,-2.09005 -1.67171,-3.49305 L 82.990937,84.481011 c 1.265426,-1.578248 3.796278,-0.672125 3.796278,1.34425 l 0,35.365709 z M 169.78598,46.067137 c 1.26542,-1.563313 3.79529,-0.672125 3.79529,1.34425 l 0,169.330643 c 0,1.18393 -0.95923,2.14781 -2.13745,2.14781 l -22.14942,0 c -1.17822,0 -2.13745,-0.96388 -2.13745,-2.14781 l 0,-141.842233 c 0,-0.496874 0.17441,-0.963876 0.49448,-1.35819 l 22.13455,-27.47447 z M 105.90436,154.03697 c -1.17822,0 -2.12357,-0.96488 -2.12357,-2.14781 l 0,-92.4326 c 0,-0.482934 0.16053,-0.964872 0.46574,-1.34425 l 22.14941,-27.489406 c 1.26543,-1.563313 3.78141,-0.672125 3.78141,1.345245 l 0,119.921011 c 0,1.18293 -0.94535,2.14781 -2.13844,2.14781 l -22.13455,0 z M 273.6063,89.809218 c 1.17823,0 2.12358,0.949937 2.12358,2.133872 l 0,81.22354 c 0,1.18394 -0.94535,2.13388 -2.12358,2.13388 l -80.81682,0 c -1.17822,0 -2.12358,-0.94994 -2.12358,-2.13388 l 0,-81.22354 c 0,-1.183935 0.94536,-2.133872 2.12358,-2.133872 l 18.16387,0 c 1.17822,0 2.13844,0.949937 2.13844,2.133872 l 0,59.98938 c 0,1.18394 0.95923,2.13387 2.13745,2.13387 l 35.95118,0 c 1.17822,0 2.12357,-0.94993 2.12357,-2.13387 l 0,-59.98938 c 0,-1.183935 0.95923,-2.133872 2.13745,-2.133872 l 18.16486,0 z M 396.89873,175.3015 c -1.17823,0 -2.12358,-0.94993 -2.12358,-2.13387 l 0,-81.223544 c 0,-1.183936 0.94535,-2.147812 2.12358,-2.147812 l 18.19359,0 c 1.17823,0 2.12358,0.963876 2.12358,2.147812 l 0,81.223544 c 0,1.18394 -0.94535,2.13387 -2.12358,2.13387 l -18.19359,0 z M 519.23857,108.889 c 0,1.18394 -0.94536,2.13387 -2.12358,2.13387 l -58.42067,0 c -1.17723,0 -2.13745,0.96388 -2.13745,2.14781 l 0,38.75621 c 0,1.18394 0.96022,2.14782 2.13745,2.14782 l 58.42067,0 c 1.17822,0 2.12358,0.96487 2.12358,2.1488 l 0,16.93755 c 0,1.18294 -0.94536,2.13287 -2.12358,2.13287 l -80.81682,0 c -1.16336,0 -2.13844,-0.94993 -2.13844,-2.13287 l 0,-81.209606 c 0,-1.183935 0.97508,-2.147812 2.13844,-2.147812 l 80.81682,0 c 1.17822,0 2.12358,0.963877 2.12358,2.147812 l 0,16.937546 z m -201.98775,2.14094 c -1.17823,0 -2.12358,0.96487 -2.12358,2.14781 l 0,6.62068 c 0,1.18394 0.94535,2.14781 2.12358,2.14781 l 58.4058,0 c 1.17822,0 2.13844,0.94994 2.13844,2.13388 l 0,49.07307 c 0,1.19887 -0.96022,2.14881 -2.13844,2.14881 l -80.80295,0 c -1.17723,0 -2.13745,-0.94994 -2.13745,-2.14881 l 0,-16.93754 c 0,-1.18394 0.96022,-2.14781 2.13745,-2.14781 l 58.34832,0 c 1.17823,0 2.12358,-0.96488 2.12358,-2.14881 l -0.0149,-6.61969 c -0.0149,-1.16899 -0.96022,-2.13387 -2.13844,-2.13387 l -58.3186,0 c -1.17723,0 -2.13745,-0.96387 -2.13745,-2.14781 l 0,-49.073076 c 0,-1.183936 0.96022,-2.148808 2.13745,-2.148808 l 80.80295,0 c 1.17822,0 2.13844,0.964872 2.13844,2.148808 l 0,16.951486 c 0,1.18394 -0.96022,2.13387 -2.13844,2.13387 l -58.4058,0 z"
       id="signMusic4"
       data-reactid=".1he9t9afc8.0.1.4.5.0.0.0.0.0.0.0"
       inkscape:connector-curvature="0"
       style="fill:#ff3c87" />
    <path
       d="M 151.06719,1.714502e-6 171.60237,16.703548 l -24.4474,30.323284 0,-42.1745871 L 151.06719,1.714502e-6 z M 0,218.90139 l 0,-26.53847 130.17735,0 0,26.53847 -130.17735,0 z m 103.76988,108.06572 0,-91.00271 26.41342,0 0,91.00271 -26.41342,0 z m 85.2871,-106.70349 0,-26.20396 43.9315,0 0,26.20396 -43.9315,0 z m -42.11124,63.64969 0,-46.80963 25.62791,0 0,46.80963 -25.62791,0 z m 0,43.05385 0,-26.20887 64.08036,0 0,26.20887 -64.08036,0 z m -87.032191,0.004 0,-26.74274 26.628244,0 0,26.74274 -26.628244,0 z"
       id="digitMusic4"
       data-reactid=".1he9t9afc8.0.1.4.5.0.0.0.0.0.0.1"
       inkscape:connector-curvature="0"
       style="fill:#000000" />
  </g>
</svg>
