<svg xmlns="http://www.w3.org/2000/svg" width="2246" height="2500" preserveAspectRatio="xMidYMid" viewBox="0 0 256 285" id="opera"><defs><linearGradient id="c" x1="49.994%" x2="49.994%" y1="103.246%" y2="-2.225%"><stop offset="0%" stop-color="#333132"></stop><stop offset="24.89%" stop-color="#8F8D8F"></stop><stop offset="100%" stop-color="#D1D3D4"></stop></linearGradient><linearGradient id="d" x1="49.986%" x2="49.986%" y1="103.226%" y2="-2.228%"><stop offset="0%" stop-color="#A81E22"></stop><stop offset="39.52%" stop-color="#D02026"></stop><stop offset="100%" stop-color="#E51E26"></stop></linearGradient><linearGradient id="e" x1="50.002%" x2="50.002%" y1="101.002%" y2="-.047%"><stop offset="0%" stop-color="#951A1D"></stop><stop offset="100%" stop-color="#DE1F26"></stop></linearGradient><linearGradient id="f" x1="49.98%" x2="49.98%" y1="112.687%" y2="-10.042%"><stop offset="0%" stop-color="#D91F26"></stop><stop offset="100%" stop-color="#BC2025"></stop></linearGradient><radialGradient id="a" cy="62.949%" r="66.222%" fx="50%" fy="62.949%"><stop offset="0%"></stop><stop offset="100%" stop-color="#FFF" stop-opacity="0"></stop></radialGradient><filter id="b" width="200%" height="200%" x="-50%" y="-50%" filterUnits="objectBoundingBox"><feGaussianBlur in="SourceGraphic" result="blur" stdDeviation="2"></feGaussianBlur></filter></defs><path fill="url(#a)" d="M128.2 279.657c33.482 0 84.852.823 84.524-27.72-.547-8.759-40.266 4.432-88.737 4.432-48.472 0-80.422-14.596-80.312-3.135.547 24.219 51.043 26.423 84.525 26.423z" filter="url(#b)"></path><path fill="url(#c)" d="M128.2 251.7c-45.7 0-51.1-68.4-51.1-118.2 0-53.7 8.7-113 51.1-113 42.4 0 51 60 51 113.7 0 49.7-5.3 117.5-51 117.5m0-251.5C53 .2.4 54.7.4 136.5c0 72.8 51.1 139.1 127.8 139.1 76.7 0 127.8-66.3 127.8-139.1C256 54.7 203.4.2 128.2.2"></path><path fill="url(#d)" d="M3 135.5c0 70.7 49.6 135 124.1 135 74.4 0 124-64.4 124-135C251.1 56.1 200 3.2 127 3.2S3 56.1 3 135.5zm73.6-4c0-53.4 8-110 50.1-110s50.6 58.3 50.6 111.7c0 49.4-4.9 115.7-50.3 115.7s-50.4-67-50.4-116.4v-1z"></path><path fill="url(#e)" d="M0 135.5c0 72.4 50.8 138.2 127 138.2s127-65.9 127-138.2C254 54.2 201.7 0 127 0S0 54.2 0 135.5m3 0C3 56.1 54 3.2 127 3.2s124 52.9 124 132.3c0 70.7-49.6 135-124 135S3 206.2 3 135.5"></path><path fill="url(#f)" d="M76.3 132.5C76.3 182 81.6 250 127 250c45.4 0 50.7-67.4 50.7-116.8 0-53.4-8.5-112.9-50.7-112.9-42.1-.1-50.7 58.9-50.7 112.2m1.1.8c0-52.1 8.4-108.9 49.6-108.9 41.1 0 49.5 57.4 49.5 109.5 0 48.3-4.7 112.9-49 112.9s-50.1-65.2-50.1-113.5"></path></svg>