<svg  id="visual" viewBox="0 0 900 600" >
        <rect x="0" y="0" fill="#1B223B"></rect>
        <g transform="translate(900, 600)">
            <path
                d="M-405.6 0C-368.6 -22.3 -331.6 -44.7 -328.6 -75C-325.5 -105.3 -356.5 -143.5 -353.2 -170.1C-349.9 -196.6 -312.3 -211.4 -283 -225.7C-253.7 -240 -232.6 -253.7 -211.4 -265C-190.1 -276.4 -168.8 -285.4 -149.7 -310.8C-130.6 -336.3 -113.8 -378.2 -89.2 -390.9C-64.7 -403.7 -32.3 -387.4 0 -371L0 0Z"
                fill="#8BD0E6"></path>
            <path
                d="M-304.2 0C-276.5 -16.8 -248.7 -33.5 -246.4 -56.2C-244.1 -79 -267.4 -107.7 -264.9 -127.6C-262.4 -147.5 -234.3 -158.6 -212.3 -169.3C-190.3 -180 -174.4 -190.3 -158.5 -198.8C-142.6 -207.3 -126.6 -214 -112.3 -233.1C-98 -252.2 -85.3 -283.6 -66.9 -293.2C-48.5 -302.8 -24.2 -290.5 0 -278.2L0 0Z"
                fill="#8394FE"></path>
            <path
                d="M-202.8 0C-184.3 -11.2 -165.8 -22.3 -164.3 -37.5C-162.8 -52.6 -178.2 -71.8 -176.6 -85C-174.9 -98.3 -156.2 -105.7 -141.5 -112.9C-126.9 -120 -116.3 -126.8 -105.7 -132.5C-95.1 -138.2 -84.4 -142.7 -74.8 -155.4C-65.3 -168.1 -56.9 -189.1 -44.6 -195.5C-32.3 -201.9 -16.2 -193.7 0 -185.5L0 0Z"
                fill="#4D8FE8"></path>
            <path
                d="M-101.4 0C-92.2 -5.6 -82.9 -11.2 -82.1 -18.7C-81.4 -26.3 -89.1 -35.9 -88.3 -42.5C-87.5 -49.2 -78.1 -52.9 -70.8 -56.4C-63.4 -60 -58.1 -63.4 -52.8 -66.3C-47.5 -69.1 -42.2 -71.3 -37.4 -77.7C-32.7 -84.1 -28.4 -94.5 -22.3 -97.7C-16.2 -100.9 -8.1 -96.8 0 -92.7L0 0Z"
                fill="#8BD0E6"></path>
        </g>
        <g transform="translate(0, 0)">
            <path
                d="M354 0C358.4 26.4 362.9 52.8 364.6 83.2C366.4 113.6 365.5 148.1 341.5 164.4C317.5 180.8 270.3 179.2 255.7 203.9C241 228.6 258.7 279.7 251.3 315.1C243.8 350.5 211.2 370.3 176 365.5C140.8 360.6 103.2 331.2 73.4 321.7C43.7 312.2 21.8 322.6 0 333L0 0Z"
                fill="#8BD0E6"></path>
            <path
                d="M265.5 0C268.8 19.8 272.1 39.6 273.5 62.4C274.8 85.2 274.1 111 256.1 123.3C238.1 135.6 202.8 134.4 191.7 152.9C180.7 171.4 194 209.7 188.4 236.3C182.9 262.9 158.4 277.7 132 274.1C105.6 270.5 77.4 248.4 55.1 241.3C32.8 234.2 16.4 242 0 249.8L0 0Z"
                fill="#8394FE"></path>
            <path
                d="M177 0C179.2 13.2 181.4 26.4 182.3 41.6C183.2 56.8 182.7 74 170.7 82.2C158.7 90.4 135.2 89.6 127.8 101.9C120.5 114.3 129.4 139.8 125.6 157.5C121.9 175.2 105.6 185.1 88 182.7C70.4 180.3 51.6 165.6 36.7 160.9C21.8 156.1 10.9 161.3 0 166.5L0 0Z"
                fill="#4D8FE8"></path>
            <path
                d="M88.5 0C89.6 6.6 90.7 13.2 91.2 20.8C91.6 28.4 91.4 37 85.4 41.1C79.4 45.2 67.6 44.8 63.9 51C60.2 57.1 64.7 69.9 62.8 78.8C61 87.6 52.8 92.6 44 91.4C35.2 90.2 25.8 82.8 18.4 80.4C10.9 78.1 5.5 80.7 0 83.3L0 0Z"
                fill="#8BD0E6"></path>
        </gitg>
    </svg>