<svg id="visual" viewBox="0 0 900 600" width="900" height="600" xmlns="http://www.w3.org/2000/svg" xmlns:xlink="http://www.w3.org/1999/xlink" version="1.1"><rect x="0" y="0" width="900" height="600" fill="#1B223B"></rect><defs><linearGradient id="grad1_0" x1="33.3%" y1="100%" x2="100%" y2="0%"><stop offset="20%" stop-color="#da1cec" stop-opacity="1"></stop><stop offset="80%" stop-color="#da1cec" stop-opacity="1"></stop></linearGradient></defs><defs><linearGradient id="grad1_1" x1="33.3%" y1="100%" x2="100%" y2="0%"><stop offset="20%" stop-color="#da1cec" stop-opacity="1"></stop><stop offset="80%" stop-color="#7e3ebe" stop-opacity="1"></stop></linearGradient></defs><defs><linearGradient id="grad1_2" x1="33.3%" y1="100%" x2="100%" y2="0%"><stop offset="20%" stop-color="#3a3680" stop-opacity="1"></stop><stop offset="80%" stop-color="#7e3ebe" stop-opacity="1"></stop></linearGradient></defs><defs><linearGradient id="grad1_3" x1="33.3%" y1="100%" x2="100%" y2="0%"><stop offset="20%" stop-color="#3a3680" stop-opacity="1"></stop><stop offset="80%" stop-color="#1b223b" stop-opacity="1"></stop></linearGradient></defs><defs><linearGradient id="grad2_0" x1="0%" y1="100%" x2="66.7%" y2="0%"><stop offset="20%" stop-color="#da1cec" stop-opacity="1"></stop><stop offset="80%" stop-color="#da1cec" stop-opacity="1"></stop></linearGradient></defs><defs><linearGradient id="grad2_1" x1="0%" y1="100%" x2="66.7%" y2="0%"><stop offset="20%" stop-color="#7e3ebe" stop-opacity="1"></stop><stop offset="80%" stop-color="#da1cec" stop-opacity="1"></stop></linearGradient></defs><defs><linearGradient id="grad2_2" x1="0%" y1="100%" x2="66.7%" y2="0%"><stop offset="20%" stop-color="#7e3ebe" stop-opacity="1"></stop><stop offset="80%" stop-color="#3a3680" stop-opacity="1"></stop></linearGradient></defs><defs><linearGradient id="grad2_3" x1="0%" y1="100%" x2="66.7%" y2="0%"><stop offset="20%" stop-color="#1b223b" stop-opacity="1"></stop><stop offset="80%" stop-color="#3a3680" stop-opacity="1"></stop></linearGradient></defs><g transform="translate(900, 600)"><path d="M-267 0C-272.3 -25 -277.5 -50 -273.4 -73.2C-269.2 -96.5 -255.7 -118 -241.6 -139.5C-227.6 -161 -213 -182.4 -192.3 -192.3C-171.6 -202.2 -144.7 -200.6 -126 -218.2C-107.3 -235.9 -96.6 -273 -77 -287.3C-57.3 -301.7 -28.7 -293.3 0 -285L0 0Z" fill="#262d5e"></path><path d="M-200.2 0C-204.2 -18.7 -208.1 -37.5 -205 -54.9C-201.9 -72.4 -191.7 -88.5 -181.2 -104.6C-170.7 -120.7 -159.8 -136.8 -144.2 -144.2C-128.7 -151.7 -108.6 -150.4 -94.5 -163.7C-80.4 -176.9 -72.5 -204.7 -57.7 -215.5C-43 -226.3 -21.5 -220 0 -213.7L0 0Z" fill="#583ca0"></path><path d="M-133.5 0C-136.1 -12.5 -138.8 -25 -136.7 -36.6C-134.6 -48.3 -127.8 -59 -120.8 -69.7C-113.8 -80.5 -106.5 -91.2 -96.2 -96.2C-85.8 -101.1 -72.4 -100.3 -63 -109.1C-53.6 -118 -48.3 -136.5 -38.5 -143.7C-28.7 -150.8 -14.3 -146.7 0 -142.5L0 0Z" fill="#aa37d8"></path><path d="M-66.7 0C-68.1 -6.2 -69.4 -12.5 -68.3 -18.3C-67.3 -24.1 -63.9 -29.5 -60.4 -34.9C-56.9 -40.2 -53.3 -45.6 -48.1 -48.1C-42.9 -50.6 -36.2 -50.1 -31.5 -54.6C-26.8 -59 -24.2 -68.2 -19.2 -71.8C-14.3 -75.4 -7.2 -73.3 0 -71.2L0 0Z" fill="#da1cec"></path></g><g transform="translate(0, 0)"><path d="M260 0C255.1 21.8 250.1 43.7 247.3 66.3C244.4 88.8 243.7 112.2 239.9 138.5C236.1 164.8 229.2 194.2 210.3 210.3C191.5 226.5 160.6 229.4 135 233.8C109.4 238.3 88.9 244.2 67.3 251.1C45.7 258.1 22.8 266 0 274L0 0Z" fill="#262d5e"></path><path d="M195 0C191.3 16.4 187.6 32.8 185.5 49.7C183.3 66.6 182.8 84.1 179.9 103.9C177.1 123.6 171.9 145.6 157.8 157.8C143.6 169.9 120.5 172 101.3 175.4C82 178.7 66.7 183.1 50.5 188.4C34.2 193.6 17.1 199.5 0 205.5L0 0Z" fill="#583ca0"></path><path d="M130 0C127.5 10.9 125.1 21.8 123.6 33.1C122.2 44.4 121.8 56.1 119.9 69.2C118 82.4 114.6 97.1 105.2 105.2C95.7 113.2 80.3 114.7 67.5 116.9C54.7 119.1 44.5 122.1 33.6 125.6C22.8 129 11.4 133 0 137L0 0Z" fill="#aa37d8"></path><path d="M65 0C63.8 5.5 62.5 10.9 61.8 16.6C61.1 22.2 60.9 28 60 34.6C59 41.2 57.3 48.5 52.6 52.6C47.9 56.6 40.2 57.3 33.8 58.5C27.3 59.6 22.2 61 16.8 62.8C11.4 64.5 5.7 66.5 0 68.5L0 0Z" fill="#da1cec"></path></g></svg>