<svg id="visual" viewBox="0 0 3600 2400" width="3600" height="2400" xmlns="http://www.w3.org/2000/svg" xmlns:xlink="http://www.w3.org/1999/xlink" version="1.1"><rect x="0" y="0" width="3600" height="2400" fill="#1B223B"></rect><defs><linearGradient id="grad1_0" x1="33.3%" y1="100%" x2="100%" y2="0%"><stop offset="20%" stop-color="#da1cec" stop-opacity="1"></stop><stop offset="80%" stop-color="#da1cec" stop-opacity="1"></stop></linearGradient></defs><defs><linearGradient id="grad1_1" x1="33.3%" y1="100%" x2="100%" y2="0%"><stop offset="20%" stop-color="#da1cec" stop-opacity="1"></stop><stop offset="80%" stop-color="#a039d3" stop-opacity="1"></stop></linearGradient></defs><defs><linearGradient id="grad1_2" x1="33.3%" y1="100%" x2="100%" y2="0%"><stop offset="20%" stop-color="#6e3eb3" stop-opacity="1"></stop><stop offset="80%" stop-color="#a039d3" stop-opacity="1"></stop></linearGradient></defs><defs><linearGradient id="grad1_3" x1="33.3%" y1="100%" x2="100%" y2="0%"><stop offset="20%" stop-color="#6e3eb3" stop-opacity="1"></stop><stop offset="80%" stop-color="#45398d" stop-opacity="1"></stop></linearGradient></defs><defs><linearGradient id="grad1_4" x1="33.3%" y1="100%" x2="100%" y2="0%"><stop offset="20%" stop-color="#292f65" stop-opacity="1"></stop><stop offset="80%" stop-color="#45398d" stop-opacity="1"></stop></linearGradient></defs><defs><linearGradient id="grad1_5" x1="33.3%" y1="100%" x2="100%" y2="0%"><stop offset="20%" stop-color="#292f65" stop-opacity="1"></stop><stop offset="80%" stop-color="#1b223b" stop-opacity="1"></stop></linearGradient></defs><defs><linearGradient id="grad2_0" x1="0%" y1="100%" x2="66.7%" y2="0%"><stop offset="20%" stop-color="#da1cec" stop-opacity="1"></stop><stop offset="80%" stop-color="#da1cec" stop-opacity="1"></stop></linearGradient></defs><defs><linearGradient id="grad2_1" x1="0%" y1="100%" x2="66.7%" y2="0%"><stop offset="20%" stop-color="#a039d3" stop-opacity="1"></stop><stop offset="80%" stop-color="#da1cec" stop-opacity="1"></stop></linearGradient></defs><defs><linearGradient id="grad2_2" x1="0%" y1="100%" x2="66.7%" y2="0%"><stop offset="20%" stop-color="#a039d3" stop-opacity="1"></stop><stop offset="80%" stop-color="#6e3eb3" stop-opacity="1"></stop></linearGradient></defs><defs><linearGradient id="grad2_3" x1="0%" y1="100%" x2="66.7%" y2="0%"><stop offset="20%" stop-color="#45398d" stop-opacity="1"></stop><stop offset="80%" stop-color="#6e3eb3" stop-opacity="1"></stop></linearGradient></defs><defs><linearGradient id="grad2_4" x1="0%" y1="100%" x2="66.7%" y2="0%"><stop offset="20%" stop-color="#45398d" stop-opacity="1"></stop><stop offset="80%" stop-color="#292f65" stop-opacity="1"></stop></linearGradient></defs><defs><linearGradient id="grad2_5" x1="0%" y1="100%" x2="66.7%" y2="0%"><stop offset="20%" stop-color="#1b223b" stop-opacity="1"></stop><stop offset="80%" stop-color="#292f65" stop-opacity="1"></stop></linearGradient></defs><g transform="translate(3600, 2400)"><path d="M-2055.2 0C-1937.8 -111.8 -1820.5 -223.6 -1801.7 -358.4C-1782.9 -493.1 -1862.7 -650.8 -1796 -743.9C-1729.3 -837 -1516.1 -865.5 -1419.3 -948.4C-1322.6 -1031.2 -1342.2 -1168.4 -1327.9 -1327.9C-1313.6 -1487.5 -1265.3 -1669.4 -1141.8 -1708.8C-1018.2 -1748.2 -819.4 -1645.2 -682.3 -1647.3C-545.2 -1649.3 -469.8 -1756.4 -366.4 -1841.9C-262.9 -1927.4 -131.5 -1991.3 0 -2055.2L0 0Z" fill="#202950"></path><path d="M-1712.6 0C-1614.8 -93.2 -1517.1 -186.4 -1501.4 -298.7C-1485.8 -410.9 -1552.3 -542.4 -1496.7 -619.9C-1441.1 -697.5 -1263.4 -721.3 -1182.8 -790.3C-1102.1 -859.3 -1118.5 -973.7 -1106.6 -1106.6C-1094.7 -1239.6 -1054.5 -1391.1 -951.5 -1424C-848.5 -1456.9 -682.9 -1371 -568.6 -1372.7C-454.4 -1374.4 -391.5 -1463.7 -305.3 -1534.9C-219.1 -1606.2 -109.6 -1659.4 0 -1712.6L0 0Z" fill="#353579"></path><path d="M-1370.1 0C-1291.9 -74.5 -1213.6 -149.1 -1201.1 -238.9C-1188.6 -328.8 -1241.8 -433.9 -1197.3 -496C-1152.9 -558 -1010.7 -577 -946.2 -632.2C-881.7 -687.5 -894.8 -778.9 -885.3 -885.3C-875.8 -991.7 -843.6 -1112.9 -761.2 -1139.2C-678.8 -1165.5 -546.3 -1096.8 -454.9 -1098.2C-363.5 -1099.5 -313.2 -1170.9 -244.3 -1227.9C-175.3 -1284.9 -87.6 -1327.5 0 -1370.1L0 0Z" fill="#583ca0"></path><path d="M-1027.6 0C-968.9 -55.9 -910.2 -111.8 -900.9 -179.2C-891.5 -246.6 -931.4 -325.4 -898 -372C-864.7 -418.5 -758 -432.8 -709.7 -474.2C-661.3 -515.6 -671.1 -584.2 -664 -664C-656.8 -743.7 -632.7 -834.7 -570.9 -854.4C-509.1 -874.1 -409.7 -822.6 -341.2 -823.6C-272.6 -824.7 -234.9 -878.2 -183.2 -921C-131.5 -963.7 -65.7 -995.6 0 -1027.6L0 0Z" fill="#863dc4"></path><path d="M-685.1 0C-645.9 -37.3 -606.8 -74.5 -600.6 -119.5C-594.3 -164.4 -620.9 -216.9 -598.7 -248C-576.4 -279 -505.4 -288.5 -473.1 -316.1C-440.9 -343.7 -447.4 -389.5 -442.6 -442.6C-437.9 -495.8 -421.8 -556.5 -380.6 -569.6C-339.4 -582.7 -273.1 -548.4 -227.4 -549.1C-181.7 -549.8 -156.6 -585.5 -122.1 -614C-87.6 -642.5 -43.8 -663.8 0 -685.1L0 0Z" fill="#bc30e0"></path><path d="M-342.5 0C-323 -18.6 -303.4 -37.3 -300.3 -59.7C-297.2 -82.2 -310.5 -108.5 -299.3 -124C-288.2 -139.5 -252.7 -144.3 -236.6 -158.1C-220.4 -171.9 -223.7 -194.7 -221.3 -221.3C-218.9 -247.9 -210.9 -278.2 -190.3 -284.8C-169.7 -291.4 -136.6 -274.2 -113.7 -274.5C-90.9 -274.9 -78.3 -292.7 -61.1 -307C-43.8 -321.2 -21.9 -331.9 0 -342.5L0 0Z" fill="#da1cec"></path></g><g transform="translate(0, 0)"><path d="M2055.2 0C1924.5 117.3 1793.8 234.7 1710.5 340.2C1627.2 445.8 1591.3 539.7 1579.8 654.4C1568.4 769.1 1581.4 904.8 1574 1051.7C1566.6 1198.6 1538.9 1356.8 1453.2 1453.2C1367.6 1549.6 1224.1 1584.2 1100 1646.3C976 1708.4 871.5 1798.2 746.6 1802.5C621.8 1806.8 476.6 1725.8 348.8 1753.6C221 1781.5 110.5 1918.3 0 2055.2L0 0Z" fill="#202950"></path><path d="M1712.6 0C1603.7 97.8 1494.8 195.5 1425.4 283.5C1356 371.5 1326.1 449.7 1316.5 545.3C1307 640.9 1317.8 754 1311.6 876.4C1305.5 998.9 1282.4 1130.7 1211 1211C1139.7 1291.3 1020.1 1320.1 916.7 1371.9C813.3 1423.7 726.2 1498.5 622.2 1502.1C518.1 1505.7 397.2 1438.1 290.7 1461.4C184.2 1484.6 92.1 1598.6 0 1712.6L0 0Z" fill="#353579"></path><path d="M1370.1 0C1283 78.2 1195.9 156.4 1140.3 226.8C1084.8 297.2 1060.9 359.8 1053.2 436.3C1045.6 512.8 1054.2 603.2 1049.3 701.1C1044.4 799.1 1025.9 904.6 968.8 968.8C911.7 1033.1 816 1056.1 733.4 1097.5C650.7 1139 581 1198.8 497.7 1201.7C414.5 1204.5 317.8 1150.5 232.5 1169.1C147.3 1187.7 73.7 1278.9 0 1370.1L0 0Z" fill="#583ca0"></path><path d="M1027.6 0C962.2 58.7 896.9 117.3 855.2 170.1C813.6 222.9 795.6 269.8 789.9 327.2C784.2 384.6 790.7 452.4 787 525.8C783.3 599.3 769.4 678.4 726.6 726.6C683.8 774.8 612 792.1 550 823.2C488 854.2 435.7 899.1 373.3 901.2C310.9 903.4 238.3 862.9 174.4 876.8C110.5 890.8 55.3 959.2 0 1027.6L0 0Z" fill="#863dc4"></path><path d="M685.1 0C641.5 39.1 597.9 78.2 570.2 113.4C542.4 148.6 530.4 179.9 526.6 218.1C522.8 256.4 527.1 301.6 524.7 350.6C522.2 399.5 513 452.3 484.4 484.4C455.9 516.5 408 528.1 366.7 548.8C325.3 569.5 290.5 599.4 248.9 600.8C207.3 602.3 158.9 575.3 116.3 584.5C73.7 593.8 36.8 639.4 0 685.1L0 0Z" fill="#bc30e0"></path><path d="M342.5 0C320.7 19.6 299 39.1 285.1 56.7C271.2 74.3 265.2 89.9 263.3 109.1C261.4 128.2 263.6 150.8 262.3 175.3C261.1 199.8 256.5 226.1 242.2 242.2C227.9 258.3 204 264 183.3 274.4C162.7 284.7 145.2 299.7 124.4 300.4C103.6 301.1 79.4 287.6 58.1 292.3C36.8 296.9 18.4 319.7 0 342.5L0 0Z" fill="#da1cec"></path></g></svg>