<svg width="125" height="125" viewBox="0 0 125 125" fill="none" xmlns="http://www.w3.org/2000/svg">
<path d="M105.615 62.4497C105.615 86.2666 86.3078 105.574 62.4909 105.574C38.6739 105.574 19.3665 86.2666 19.3665 62.4497C19.3665 38.6327 38.6739 19.3253 62.4909 19.3253C86.3078 19.3253 105.615 38.6327 105.615 62.4497Z" fill="#EEF866" stroke="black" stroke-width="3.12066"/>
<path d="M47.5506 63.255C50.5038 63.255 52.8979 58.2416 52.8979 52.0572C52.8979 45.8728 50.5038 40.8594 47.5506 40.8594C44.5974 40.8594 42.2034 45.8728 42.2034 52.0572C42.2034 58.2416 44.5974 63.255 47.5506 63.255Z" fill="black"/>
<path d="M77.4315 63.255C80.3847 63.255 82.7787 58.2416 82.7787 52.0572C82.7787 45.8728 80.3847 40.8594 77.4315 40.8594C74.4783 40.8594 72.0842 45.8728 72.0842 52.0572C72.0842 58.2416 74.4783 63.255 77.4315 63.255Z" fill="black"/>
<path d="M92.2652 75.803C88.1674 74.2634 84.5256 70.6156 82.9859 66.5238L79.658 67.7732C80.3627 69.6445 81.4286 71.4387 82.7432 73.0553C71.2492 83.3649 53.7271 83.3649 42.2332 73.0553C43.5478 71.4447 44.6137 69.6504 45.3184 67.7792L41.9904 66.5297C40.4508 70.6275 36.803 74.2693 32.7112 75.8089L33.9606 79.1369C36.0332 78.3552 38.0111 77.1294 39.752 75.6135C46.1888 81.4345 54.337 84.3479 62.4852 84.3479C70.6334 84.3479 78.7816 81.4345 85.2184 75.6135C86.9594 77.1294 88.9372 78.3552 91.0098 79.1369L92.2592 75.8089L92.2652 75.803Z" fill="black"/>
<path d="M65.1261 10.5287L63.8884 1.10865e-05L65.7241 0.130287L66.4466 7.40207L68.1106 0.302015L70.0233 0.438213L67.3111 10.6886L65.132 10.5346L65.1261 10.5287Z" fill="black"/>
<path d="M74.7195 12.0683C73.9792 11.8907 73.4226 11.6124 73.0555 11.2393C72.6883 10.8662 72.4692 10.4103 72.3982 9.87139C72.3271 9.33252 72.3804 8.71667 72.5462 8.02384L73.4581 4.25175C73.6239 3.55892 73.8608 2.99044 74.1687 2.54632C74.4767 2.10219 74.8734 1.80019 75.3708 1.64623C75.8682 1.49226 76.4841 1.50411 77.2243 1.68768C77.9764 1.87125 78.533 2.14365 78.912 2.51079C79.285 2.87793 79.5101 3.32797 79.5752 3.86092C79.6463 4.39387 79.5989 5.0038 79.4272 5.69663L78.5152 9.46872C78.3494 10.1616 78.1126 10.73 77.8046 11.1801C77.4967 11.6301 77.094 11.938 76.5907 12.0979C76.0873 12.2578 75.4656 12.246 74.7135 12.0683H74.7195ZM75.0807 10.582C75.3471 10.6471 75.5544 10.6353 75.7143 10.5405C75.8683 10.4517 75.9926 10.3096 76.0814 10.1142C76.1703 9.91877 76.2472 9.70559 76.3005 9.47464L77.4612 4.68995C77.5204 4.45901 77.55 4.23399 77.5559 4.02673C77.5618 3.81947 77.5204 3.6359 77.4197 3.48786C77.325 3.33982 77.1414 3.22731 76.8749 3.16217C76.6262 3.10295 76.4249 3.1148 76.2709 3.20954C76.117 3.30429 75.9926 3.44049 75.9038 3.62998C75.815 3.81947 75.738 4.03265 75.6847 4.26359L74.524 9.04828C74.4648 9.27923 74.4352 9.50425 74.4234 9.71743C74.4115 9.93061 74.453 10.1142 74.5477 10.2622C74.6425 10.4162 74.8201 10.5228 75.0807 10.582Z" fill="black"/>
<path d="M81.5352 14.058L84.9342 5.90389L83.4538 5.28804L84.0637 3.83132L88.9787 5.88021L88.3687 7.33693L86.912 6.727L83.513 14.8811L81.5411 14.058H81.5352Z" fill="black"/>
<path d="M87.2197 16.6694L92.5255 7.70999L96.4279 10.0254L95.6818 11.2867L93.6033 10.055L92.1939 12.4355L93.7987 13.3829L93.0466 14.6561L91.4419 13.7086L89.7779 16.5214L91.8801 17.7649L91.1458 19.0026L87.2197 16.6754V16.6694Z" fill="black"/>
<path d="M93.4319 20.5718L100.076 12.5539L102.036 14.1764C102.717 14.739 103.173 15.266 103.41 15.7575C103.647 16.249 103.688 16.7464 103.534 17.2498C103.386 17.7531 103.066 18.2979 102.587 18.8782L100.165 21.7976C99.6733 22.3898 99.1877 22.8161 98.714 23.0648C98.2403 23.3194 97.7369 23.3787 97.2158 23.2484C96.6947 23.1181 96.0966 22.7806 95.4334 22.2299L93.4319 20.5718ZM96.0078 20.785L96.3572 21.0692C96.6592 21.3179 96.9138 21.4541 97.127 21.4601C97.3343 21.4719 97.5356 21.3949 97.7192 21.235C97.9027 21.0751 98.1159 20.856 98.3469 20.5777L101.089 17.2734C101.32 16.9951 101.479 16.7583 101.58 16.551C101.681 16.3438 101.693 16.1543 101.627 15.9648C101.562 15.7812 101.385 15.568 101.094 15.3252L100.757 15.0469L96.0078 20.7791V20.785Z" fill="black"/>
<path d="M103.262 30.0642L111.742 24.0182L113.66 26.7066C114.021 27.2159 114.223 27.7015 114.258 28.1574C114.294 28.6134 114.187 29.0516 113.938 29.4661C113.69 29.8806 113.305 30.2715 112.79 30.6445C112.18 31.0768 111.635 31.3137 111.143 31.3492C110.652 31.3847 110.214 31.2781 109.817 31.0235C109.42 30.7689 109.059 30.4136 108.727 29.9517L108.165 29.1641L104.493 31.7874L103.262 30.0583V30.0642ZM109.379 28.3055L109.811 28.9154C109.989 29.1641 110.166 29.3299 110.344 29.4128C110.522 29.4898 110.717 29.4957 110.924 29.4128C111.132 29.3358 111.374 29.1996 111.647 29.0102C111.907 28.8266 112.109 28.6549 112.257 28.489C112.405 28.3292 112.482 28.1456 112.482 27.9443C112.482 27.7429 112.387 27.5001 112.18 27.21L111.753 26.6119L109.379 28.3055Z" fill="black"/>
<path d="M108.105 37.3834L117.414 32.7112L119.451 36.7675L118.143 37.4248L117.059 35.2634L114.59 36.501L115.425 38.165L114.104 38.8282L113.269 37.1643L110.35 38.6269L111.445 40.812L110.16 41.4575L108.111 37.3774L108.105 37.3834Z" fill="black"/>
<path d="M111.967 46.8343C111.736 46.1059 111.688 45.4901 111.813 44.9808C111.937 44.4716 112.215 44.0511 112.648 43.7136C113.074 43.3761 113.631 43.0977 114.306 42.8846L118.007 41.7121C118.688 41.4989 119.292 41.4042 119.836 41.4397C120.375 41.4693 120.843 41.6588 121.228 42.0022C121.613 42.3457 121.927 42.8846 122.152 43.6129C122.383 44.3472 122.442 44.969 122.318 45.4842C122.193 45.9934 121.927 46.4198 121.506 46.7514C121.086 47.0889 120.535 47.3613 119.86 47.5745L116.159 48.747C115.478 48.9602 114.868 49.0549 114.323 49.0253C113.779 48.9957 113.311 48.8062 112.914 48.4628C112.517 48.1193 112.203 47.5745 111.967 46.8402V46.8343ZM113.423 46.3724C113.506 46.633 113.625 46.8047 113.784 46.8935C113.944 46.9764 114.128 47.012 114.341 46.9883C114.554 46.9646 114.773 46.9172 115.004 46.8461L119.7 45.3598C119.931 45.2888 120.132 45.1999 120.316 45.0993C120.5 44.9986 120.63 44.8624 120.713 44.7025C120.79 44.5426 120.79 44.3294 120.713 44.0689C120.636 43.8261 120.517 43.6603 120.363 43.5715C120.204 43.4886 120.02 43.453 119.813 43.4767C119.605 43.5004 119.386 43.5419 119.155 43.6189L114.46 45.1052C114.229 45.1762 114.021 45.2651 113.832 45.3657C113.642 45.4664 113.512 45.5967 113.429 45.7566C113.352 45.9164 113.352 46.1237 113.429 46.3783L113.423 46.3724Z" fill="black"/>
<path d="M113.701 52.8803L124.023 51.5124L124.455 54.7871C124.538 55.4088 124.485 55.9299 124.307 56.3504C124.124 56.7708 123.827 57.1084 123.407 57.3571C122.992 57.6058 122.465 57.7716 121.838 57.8545C121.098 57.9551 120.505 57.9018 120.055 57.7064C119.605 57.511 119.268 57.209 119.031 56.7945C118.794 56.38 118.646 55.9003 118.575 55.3378L118.451 54.3844L113.98 54.9766L113.701 52.8744V52.8803ZM119.931 54.1949L120.032 54.9351C120.073 55.243 120.15 55.4681 120.274 55.622C120.393 55.776 120.565 55.8648 120.784 55.9003C121.003 55.9359 121.281 55.924 121.613 55.8826C121.927 55.8411 122.187 55.7819 122.394 55.7049C122.602 55.6279 122.75 55.5036 122.85 55.3259C122.951 55.1483 122.975 54.8877 122.927 54.5384L122.833 53.81L119.937 54.1949H119.931Z" fill="black"/>
<path d="M114.548 61.591L124.959 61.8042L124.917 63.9242L115.946 63.7406L115.898 66.1803L114.459 66.1507L114.554 61.5851L114.548 61.591Z" fill="black"/>
<path d="M114.187 68.7503L124.473 70.3906L123.756 74.8733L122.312 74.6423L122.691 72.2559L119.961 71.8177L119.665 73.6593L118.202 73.4284L118.498 71.5868L115.271 71.0716L114.886 73.4817L113.465 73.2567L114.181 68.7503H114.187Z" fill="black"/>
<path d="M119.327 77.7808H119.978C119.901 78.0947 119.955 78.3256 120.144 78.4737C120.334 78.6217 120.594 78.746 120.944 78.8408L121.169 78.0354L122.868 78.5033L122.4 80.2028C122.158 80.1376 121.932 80.0725 121.707 80.0074C121.488 79.9422 121.275 79.8771 121.068 79.8119C120.375 79.6047 119.884 79.3501 119.576 79.054C119.274 78.7579 119.191 78.3315 119.333 77.7867L119.327 77.7808Z" fill="black"/>
<path d="M110.433 82.3701C110.676 81.7779 110.989 81.322 111.368 81.014C111.747 80.7061 112.203 80.5403 112.724 80.5225C113.245 80.4989 113.855 80.6114 114.554 80.8601L114.146 82.6662C113.743 82.5181 113.394 82.4234 113.103 82.3819C112.807 82.3405 112.57 82.3642 112.381 82.4471C112.191 82.53 112.055 82.678 111.972 82.8853C111.872 83.1399 111.878 83.3412 111.996 83.5011C112.12 83.6551 112.28 83.7794 112.488 83.8624C112.89 84.0282 113.269 84.0696 113.624 83.9867C113.98 83.9038 114.359 83.7617 114.767 83.5604L116.046 82.9149C116.496 82.6839 116.952 82.53 117.426 82.4589C117.9 82.3879 118.415 82.4648 118.972 82.6958C119.765 83.0215 120.28 83.5011 120.511 84.1407C120.742 84.7802 120.695 85.5026 120.363 86.3139C120.168 86.7995 119.925 87.1607 119.641 87.4035C119.357 87.6463 119.043 87.8003 118.711 87.8654C118.374 87.9246 118.036 87.9246 117.699 87.8654C117.355 87.8062 117.029 87.7173 116.716 87.6048L117.154 85.8224C117.456 85.929 117.722 86.006 117.959 86.0593C118.196 86.1126 118.397 86.1126 118.569 86.0593C118.741 86.006 118.871 85.8698 118.954 85.6566C119.049 85.4257 119.031 85.2184 118.907 85.0408C118.782 84.8572 118.616 84.7269 118.409 84.644C118.066 84.5019 117.758 84.4664 117.474 84.5315C117.189 84.5966 116.875 84.7151 116.526 84.8868L115.271 85.5145C114.756 85.775 114.217 85.9586 113.648 86.0652C113.08 86.1718 112.47 86.0889 111.812 85.8224C111.362 85.6388 110.995 85.3665 110.711 85.0112C110.433 84.6559 110.261 84.2532 110.208 83.7972C110.154 83.3412 110.225 82.8675 110.433 82.3701Z" fill="black"/>
<path d="M105.891 91.2644L114.347 97.3459L111.783 100.917L110.616 100.076L111.943 98.2283L109.657 96.5821L108.532 98.1454L107.33 97.2808L108.455 95.7175L104.653 92.9876L105.891 91.2644Z" fill="black"/>
<path d="M102.196 96.2682L108.301 104.943L106.672 106.637L97.7781 100.863L99.1401 99.4481L101.047 100.769L102.19 99.5843L100.816 97.7131L102.196 96.2741V96.2682ZM102.989 100.615L102.125 101.515L105.589 103.978L102.989 100.621V100.615Z" fill="black"/>
<path d="M94.8057 103.291L102.681 110.385L101.219 111.499L95.8834 106.513L99.318 112.944L97.7902 114.104L93.0647 104.612L94.8057 103.291Z" fill="black"/>
<path d="M86.5624 108.473C87.2375 108.117 87.8356 107.958 88.3567 107.993C88.8778 108.029 89.3456 108.23 89.7483 108.591C90.1569 108.952 90.524 109.45 90.8556 110.077L92.6558 113.518C92.9874 114.146 93.1828 114.732 93.248 115.271C93.3131 115.81 93.2065 116.295 92.9341 116.739C92.6617 117.183 92.188 117.58 91.5129 117.935C90.8319 118.291 90.2279 118.457 89.7009 118.427C89.1739 118.397 88.712 118.202 88.3093 117.853C87.9066 117.497 87.5395 117.006 87.2079 116.378L85.4077 112.938C85.0761 112.31 84.8807 111.724 84.8155 111.179C84.7504 110.634 84.8511 110.143 85.1235 109.687C85.3959 109.237 85.8696 108.828 86.5565 108.473H86.5624ZM87.273 109.829C87.0302 109.953 86.8822 110.107 86.823 110.273C86.7638 110.439 86.7697 110.628 86.823 110.835C86.8822 111.043 86.9651 111.25 87.0776 111.463L89.3634 115.821C89.4759 116.035 89.5943 116.224 89.7305 116.384C89.8667 116.544 90.0147 116.65 90.1865 116.704C90.3582 116.751 90.5655 116.716 90.8082 116.585C91.0333 116.467 91.1754 116.319 91.2346 116.153C91.2938 115.987 91.2879 115.798 91.2346 115.596C91.1754 115.395 91.0925 115.188 90.98 114.975L88.6942 110.616C88.5817 110.403 88.4633 110.214 88.3271 110.048C88.1968 109.882 88.0428 109.77 87.8711 109.722C87.6994 109.675 87.498 109.71 87.2612 109.835L87.273 109.829Z" fill="black"/>
<path d="M80.9014 111.262L84.0162 121.198L81.4403 122.004C80.7712 122.211 80.1731 122.318 79.6461 122.318C79.119 122.318 78.669 122.164 78.29 121.862C77.911 121.56 77.6149 121.068 77.4018 120.387C77.2715 119.978 77.1945 119.605 77.1649 119.268C77.1353 118.93 77.1708 118.616 77.2774 118.332C77.384 118.048 77.5676 117.782 77.8459 117.539L74.9502 113.121L77.0228 112.47L79.575 116.615L80.2856 116.39L78.8762 111.89L80.9014 111.256V111.262ZM80.6646 117.604L80.0783 117.787C79.7526 117.888 79.5099 118.024 79.3559 118.19C79.2019 118.356 79.119 118.557 79.1072 118.8C79.0953 119.043 79.1427 119.321 79.2434 119.641C79.3855 120.097 79.5809 120.423 79.8237 120.612C80.0665 120.802 80.4159 120.825 80.8778 120.677L81.5647 120.464L80.6705 117.604H80.6646Z" fill="black"/>
<path d="M72.108 113.648L73.8135 123.922L71.735 124.266L70.0295 113.992L72.108 113.648Z" fill="black"/>
<path d="M65.9847 114.424L66.3933 123.247L67.9981 123.17L68.0691 124.751L62.7515 125L62.6804 123.419L64.2615 123.348L63.8529 114.525L65.9847 114.424Z" fill="black"/>
<path d="M59.7374 114.495L58.7899 124.864L54.2717 124.449L54.402 122.993L56.8121 123.212L57.0608 120.458L55.2014 120.286L55.3376 118.812L57.1911 118.984L57.4872 115.733L55.0534 115.514L55.1837 114.081L59.7315 114.495H59.7374Z" fill="black"/>
<path d="M48.0008 112.565L44.5544 122.389L42.0673 121.518C41.641 121.37 41.2561 121.192 40.9185 120.991C40.581 120.79 40.3027 120.547 40.0895 120.263C39.8763 119.978 39.752 119.647 39.7164 119.268C39.6809 118.889 39.7579 118.433 39.9415 117.912C40.0777 117.515 40.2553 117.195 40.4685 116.958C40.6817 116.722 40.9185 116.556 41.185 116.467C41.4515 116.378 41.7476 116.36 42.0733 116.414C41.712 116.224 41.4396 115.981 41.2502 115.691C41.0607 115.401 40.96 115.063 40.9481 114.685C40.9363 114.306 41.0133 113.885 41.1732 113.417C41.3449 112.926 41.5581 112.517 41.8127 112.197C42.0673 111.878 42.3575 111.641 42.6773 111.493C43.003 111.345 43.3642 111.274 43.7609 111.28C44.1577 111.285 44.59 111.374 45.0578 111.54L47.9949 112.57L48.0008 112.565ZM43.9445 117.722L43.4471 117.551C43.0977 117.426 42.8194 117.385 42.6062 117.426C42.393 117.468 42.2154 117.574 42.0733 117.758C41.9311 117.941 41.8068 118.178 41.7061 118.48C41.5995 118.776 41.5699 119.037 41.6055 119.256C41.641 119.475 41.7535 119.659 41.9252 119.813C42.1029 119.967 42.3516 120.097 42.6654 120.209L43.0266 120.34L43.9445 117.734V117.722ZM45.5078 113.269L44.9512 113.074C44.4478 112.896 44.0629 112.902 43.7846 113.086C43.5063 113.269 43.2813 113.613 43.1036 114.116C42.9674 114.507 42.9023 114.827 42.9141 115.093C42.9201 115.354 43.0089 115.573 43.1628 115.756C43.3227 115.934 43.5714 116.082 43.903 116.2L44.4242 116.384L45.5137 113.281L45.5078 113.269Z" fill="black"/>
<path d="M36.9627 107.679C37.6496 108.07 38.1174 108.485 38.3661 108.935C38.6148 109.385 38.6859 109.876 38.5911 110.403C38.4905 110.936 38.2655 111.516 37.9042 112.15L34.3986 118.35L32.5748 117.32L36.2284 110.865C36.3528 110.64 36.4653 110.409 36.5541 110.178C36.6429 109.941 36.6666 109.728 36.6252 109.527C36.5837 109.325 36.4475 109.16 36.2047 109.023C35.956 108.881 35.7369 108.852 35.5474 108.917C35.3579 108.988 35.1862 109.118 35.0322 109.32C34.8783 109.521 34.7421 109.728 34.6118 109.953L30.9581 116.408L29.1343 115.377L32.6399 109.177C33.0011 108.544 33.3801 108.046 33.7828 107.691C34.1854 107.336 34.6473 107.146 35.1566 107.123C35.6659 107.099 36.2699 107.288 36.9568 107.673L36.9627 107.679Z" fill="black"/>
<path d="M31.5506 104.434L24.9006 112.446L22.8221 110.723C22.2832 110.273 21.8687 109.829 21.5845 109.385C21.3002 108.941 21.1818 108.479 21.2351 107.999C21.2825 107.519 21.5371 107.004 21.9931 106.453C22.2654 106.122 22.5378 105.855 22.8043 105.648C23.0708 105.441 23.355 105.305 23.6511 105.234C23.9472 105.163 24.2729 105.18 24.6223 105.281L26.76 100.455L28.4299 101.84L26.3336 106.234L26.908 106.708L29.9221 103.078L31.5565 104.434H31.5506ZM26.0968 107.679L25.623 107.282C25.3565 107.063 25.1138 106.933 24.8947 106.892C24.6756 106.85 24.4565 106.892 24.2492 107.016C24.0419 107.14 23.8288 107.33 23.6156 107.584C23.3077 107.952 23.1419 108.289 23.1182 108.597C23.0945 108.905 23.2662 109.213 23.6333 109.515L24.19 109.977L26.1027 107.673L26.0968 107.679Z" fill="black"/>
<path d="M23.0646 96.2149C23.5206 96.7538 23.7693 97.2689 23.8048 97.7782C23.8463 98.2816 23.716 98.779 23.414 99.2646C23.112 99.7501 22.6856 100.224 22.1408 100.692L19.482 102.948C18.9135 103.427 18.3628 103.777 17.8358 103.99C17.3088 104.203 16.7877 104.233 16.2725 104.079C15.7573 103.925 15.254 103.552 14.7566 102.966C14.2769 102.397 13.9867 101.87 13.8979 101.379C13.8091 100.887 13.8742 100.425 14.0992 99.987C14.3243 99.5488 14.6736 99.1284 15.1533 98.7257L15.6152 98.3348L16.9535 99.9159L16.3968 100.39C16.1896 100.567 16.0119 100.739 15.8757 100.899C15.7395 101.059 15.6626 101.231 15.6507 101.402C15.6389 101.574 15.7218 101.763 15.8994 101.977C16.083 102.19 16.2725 102.302 16.4679 102.308C16.6633 102.314 16.8587 102.255 17.0541 102.131C17.2496 102.012 17.445 101.864 17.6404 101.698L21.1578 98.7138C21.3829 98.5243 21.5605 98.3349 21.7086 98.1454C21.8507 97.9559 21.9277 97.7664 21.9336 97.5769C21.9395 97.3874 21.8566 97.192 21.6849 96.9847C21.5131 96.7834 21.3296 96.6709 21.1282 96.6472C20.9269 96.6235 20.7196 96.6709 20.5065 96.7775C20.2933 96.89 20.0683 97.038 19.8373 97.2334L18.9965 97.9499L19.6538 98.7257L18.6708 99.5547L16.7758 97.3163L20.8558 93.8581L21.7559 94.9181L21.1223 95.6227C21.4539 95.5221 21.7855 95.5102 22.1172 95.5872C22.4488 95.6642 22.7685 95.8774 23.0705 96.2327L23.0646 96.2149Z" fill="black"/>
<path d="M19.0674 91.2348L10.1671 96.6472L7.8103 92.7685L9.05977 92.0046L10.3152 94.0713L12.6779 92.6323L11.7067 91.0394L12.9681 90.2696L13.9392 91.8625L16.7283 90.163L15.4611 88.0786L16.6928 87.3324L19.0614 91.2348H19.0674Z" fill="black"/>
<path d="M15.4139 84.875L5.76758 88.8069L4.74905 86.308C4.48258 85.6566 4.32862 85.0704 4.28716 84.5433C4.24571 84.0163 4.35822 83.5544 4.63062 83.1518C4.90302 82.7491 5.3649 82.4116 6.02813 82.1451C6.42488 81.9852 6.79202 81.8727 7.12363 81.8194C7.45524 81.7602 7.76909 81.772 8.06517 81.849C8.36126 81.926 8.63957 82.0918 8.90013 82.3464L13.0571 79.0954L13.8802 81.1088L9.9601 83.9986L10.2384 84.6914L14.6086 82.909L15.408 84.875H15.4139ZM9.07778 85.1651L8.84683 84.5907C8.71656 84.271 8.56259 84.0459 8.38494 83.9038C8.20729 83.7617 8.00004 83.6965 7.75725 83.7084C7.51446 83.7202 7.24207 83.7854 6.92822 83.9157C6.48409 84.0992 6.17617 84.3183 6.01036 84.573C5.84456 84.8335 5.85048 85.1829 6.02813 85.627L6.30052 86.2961L9.07185 85.1651H9.07778Z" fill="black"/>
<path d="M11.2925 71.8355L1.01252 73.4876L0.680908 71.4032L10.9609 69.7511L11.2925 71.8355Z" fill="black"/>
<path d="M10.5464 66.5948L0.136198 66.8554L0.100668 65.375L5.46568 62.9234L0.0414515 63.0596L0 61.3127L10.4103 61.0522L10.4458 62.4674L4.74324 64.9249L10.4991 64.7828L10.5464 66.5948Z" fill="black"/>
<path d="M11.2155 53.206L1.07764 50.8136L1.41517 49.3747L7.23023 48.368L1.94812 47.1185L2.35079 45.419L12.4886 47.8114L12.163 49.1852L6.02813 50.1149L11.6359 51.4413L11.2214 53.206H11.2155Z" fill="black"/>
<path d="M13.5428 44.7144L3.90234 40.7765L5.61962 36.5721L6.97568 37.1287L6.06374 39.3671L8.6219 40.4152L9.32657 38.692L10.6945 39.2487L9.9898 40.9719L13.0098 42.2095L13.9336 39.9474L15.266 40.4922L13.5369 44.7203L13.5428 44.7144Z" fill="black"/>
<path d="M17.001 37.0873L7.479 32.6579L8.43831 31.136L14.2001 33.931L9.32064 29.7622L10.0845 28.5542L15.947 31.136L10.9669 27.133L11.9143 25.6348L19.9974 32.3322L19.0381 33.8541L12.921 31.1834L17.9781 35.524L16.9951 37.0754L17.001 37.0873Z" fill="black"/>
<path d="M26.7658 24.6637L23.9885 21.6081L18.2563 18.3216L19.7308 16.9833L23.0233 18.9434L21.3297 15.5325L22.7568 14.2356L25.4985 20.2343L28.2758 23.2898L26.7658 24.6637Z" fill="black"/>
<path d="M34.2152 18.9907C33.5757 19.4052 32.9953 19.6184 32.4683 19.6362C31.9472 19.648 31.4616 19.4941 31.0234 19.1743C30.5852 18.8545 30.1707 18.3926 29.7799 17.7946L27.6599 14.5376C27.2691 13.9396 27.0204 13.377 26.9079 12.85C26.7954 12.323 26.8487 11.8255 27.0796 11.3577C27.3106 10.8899 27.7428 10.4517 28.3824 10.0372C29.0278 9.61676 29.6141 9.39766 30.1411 9.3799C30.6681 9.36213 31.1478 9.51017 31.5801 9.82402C32.0183 10.1379 32.4269 10.5938 32.8177 11.1919L34.9376 14.4488C35.3285 15.0469 35.5772 15.6095 35.6956 16.1424C35.814 16.6754 35.7548 17.1787 35.5298 17.6524C35.3048 18.1262 34.8666 18.5762 34.2211 18.9966L34.2152 18.9907ZM33.3802 17.7057C33.6112 17.5577 33.7474 17.3919 33.7829 17.2202C33.8244 17.0484 33.8007 16.8589 33.7237 16.6576C33.6467 16.4563 33.5401 16.2608 33.4098 16.0595L30.7214 11.9321C30.5911 11.7308 30.449 11.5531 30.301 11.4051C30.1529 11.2571 29.9931 11.1623 29.8154 11.1327C29.6378 11.0972 29.4364 11.1564 29.2055 11.3044C28.9923 11.4466 28.862 11.6005 28.8206 11.7782C28.7791 11.9499 28.7969 12.1394 28.8739 12.3348C28.9508 12.5302 29.0515 12.7315 29.1877 12.9329L31.8761 17.0603C32.0064 17.2616 32.1485 17.4393 32.2907 17.5932C32.4387 17.7472 32.5986 17.8419 32.7762 17.8775C32.9539 17.913 33.1493 17.8538 33.3743 17.7117L33.3802 17.7057Z" fill="black"/>
<path d="M39.5804 15.6865L35.5359 6.08746L38.023 5.03933C38.6684 4.76694 39.2547 4.60705 39.7817 4.55968C40.3028 4.51231 40.7706 4.6189 41.1733 4.88537C41.576 5.15184 41.9194 5.61373 42.1977 6.27103C42.3635 6.66778 42.4761 7.02901 42.5412 7.36062C42.6004 7.69223 42.5945 8.00608 42.5175 8.30216C42.4405 8.59824 42.2806 8.87656 42.026 9.14303L45.3244 13.2645L43.3229 14.1054L40.3916 10.2208L39.7047 10.5109L41.5345 14.8574L39.5804 15.6805V15.6865ZM39.2132 9.35621L39.7817 9.11935C40.0956 8.98315 40.3265 8.82919 40.4627 8.65154C40.5989 8.47389 40.664 8.26071 40.6522 8.02384C40.6403 7.78105 40.5693 7.50866 40.439 7.20073C40.2554 6.75661 40.0304 6.45461 39.7699 6.2888C39.5093 6.12299 39.1599 6.13484 38.7158 6.31841L38.0526 6.59672L39.2132 9.35621Z" fill="black"/>
<path d="M48.2496 12.3703L45.946 2.21471L48.0127 1.7469L48.9839 6.03417L49.8425 1.33238L51.8499 0.876415L50.9794 5.87428L54.2896 11.0024L52.2052 11.4762L49.6056 7.27771L49.4102 7.92909L50.3103 11.9025L48.2436 12.3703H48.2496Z" fill="black"/>
</svg>
