<?xml version="1.0" standalone="no"?>
<!DOCTYPE svg PUBLIC "-//W3C//DTD SVG 20010904//EN"
 "http://www.w3.org/TR/2001/REC-SVG-20010904/DTD/svg10.dtd">
<svg version="1.0" xmlns="http://www.w3.org/2000/svg"
 width="416.000000pt" height="436.000000pt" viewBox="0 0 416.000000 436.000000"
 preserveAspectRatio="xMidYMid meet">

<g transform="translate(0.000000,436.000000) scale(0.100000,-0.100000)"
fill="#000000" stroke="none">
<path d="M829 4004 c-23 -25 -24 -30 -27 -225 -3 -185 -5 -200 -22 -209 -26
-14 -50 -61 -50 -97 0 -28 33 -93 47 -93 5 0 15 -4 23 -10 12 -7 7 -16 -28
-48 -36 -34 -42 -44 -42 -80 0 -32 7 -49 29 -74 27 -30 35 -33 108 -39 97 -7
2078 -1 2260 7 149 7 175 17 192 78 16 59 -5 104 -65 144 -14 9 -15 14 -6 18
31 14 70 56 75 80 7 41 -10 88 -43 117 l-30 27 0 189 c0 186 0 188 -25 215
l-24 26 -1174 0 -1174 0 -24 -26z"/>
<path d="M1324 2076 c-22 -7 -55 -23 -72 -36 -43 -32 -108 -127 -139 -203 -14
-34 -26 -63 -28 -65 -1 -1 -34 31 -74 71 -87 90 -170 137 -243 137 -58 0 -94
-17 -135 -64 -43 -48 -56 -96 -51 -182 9 -131 90 -262 227 -366 70 -53 205
-122 310 -157 l63 -22 52 40 c69 54 166 147 166 159 0 5 -13 41 -29 79 -56
136 -62 256 -19 372 24 65 89 133 142 151 l38 12 -22 23 c-47 50 -124 71 -186
51z"/>
<path d="M3227 1219 c-83 -14 -168 -104 -223 -237 -15 -37 -29 -68 -29 -70 -1
-1 -38 33 -81 76 -98 97 -155 127 -244 127 -52 0 -71 -5 -98 -24 -54 -38 -84
-96 -90 -171 -16 -221 181 -437 515 -565 44 -17 80 -25 95 -21 34 9 202 162
254 231 92 124 144 258 144 376 0 182 -104 302 -243 278z"/>
</g>
</svg>
