<?xml version="1.0" encoding="utf-8"?>
<!-- Generator: Adobe Illustrator 22.1.0, SVG Export Plug-In . SVG Version: 6.00 Build 0)  -->
<svg version="1.1" id="Layer_1" xmlns:odm="http://product.corel.com/CGS/11/cddns/"
	 xmlns="http://www.w3.org/2000/svg" xmlns:xlink="http://www.w3.org/1999/xlink" x="0px" y="0px"
	 viewBox="0 0 248.03592 227.13419" style="enable-background:new 0 0 248.03592 227.13419;" xml:space="preserve">
<style type="text/css">
	.st0{fill:#576ECD;}
	.st1{fill:#4D66CC;}
	.st2{fill:#89A1D4;}
	.st3{fill:none;stroke:#000000;stroke-width:6.3;}
	.st4{fill:none;stroke:#09098F;stroke-width:6.3;}
</style>
<path class="st0" d="M209.3,193.53418c0,15.8-9.89999,32.90001-27.8,32.90001c-18.39999,0-27.89999-17.3-27.89999-32.90001
	c0-15.79999,10-33,27.89999-33C199.8,160.53418,209.3,178.13419,209.3,193.53418z M201.2,193.33418
	c0-11.59999-3.29999-30.39999-19.79999-30.39999c-16.3,0-19.70001,18.7-19.70001,30.39999c0,4.40001,0.40001,8.40001,1.20001,12
	c1.89999,8.7,7.39999,18.2,18.5,18.2C197.7,223.53418,201.2,204.83418,201.2,193.33418z"/>
<path d="M87.9,220.03418c-3.4,4.5-8.6,6.8-11.9,6.70001c-3.9,0.29999-9.4-2.40001-9.4-8c-0.2-9.70001,13.3-14.8,21.5-20.20001
	v-8.09999c0.10001-3,0.10001-5.60001-1-7.10001c-2.3-3.3-9.1-1.89999-11.5,2c-1.1,1.3-3.5,12.5-8.1,8.7c-1.2-2-0.7-4.39999,2-7.2
	c4.8-5,9.4-8,16-7.7c9.2,0.8,9.6,9.3,9.3,15.39999c0,4.3,0,8.10001-0.1,11.40001L94.6,216.83418c1.2,7.3,4.7,3.8,6.3,3.3
	l-0.2,2.39999C96.9,226.83418,90.3,228.43419,87.9,220.03418z M88,201.23419c-7.3,2.89999-14.7,7.79999-14.7,15.29999
	c0,8.60001,9.4,6.40001,14.6-0.5L88,201.23419z"/>
<path d="M121.7,227.13419c-12.9-0.2-18.8-14.10001-18.8-24.39999c0-10.3,6.6-23.60001,20.1-23.60001
	c6.8,0,12.10001,2.89999,12.10001,8.60001c0,5-1.60001,5.59999-3.10001,3.89999c-2.59999-4.3-4.3-10.10001-10.4-10.10001
	c-9.6,0-12.3,14.90001-12.5,20.8c-0.3,7.2,4.3,20.60001,14.10001,20.60001c5.8,0,8.1-0.8,11.49999-4.7l1.5,1.7
	C133.5,223.83418,127.7,227.13419,121.7,227.13419z"/>
<path d="M63.3,224.73419H42.9v-3.20001c0.8,0,1.8-0.09999,3.1-0.29999c3.1-0.40001,3.2-2.10001,3.2-5.40001L49,171.93419h-0.6
	l-17.7,51.8h-1.1l-17.2-52.8H12l-1.9,44.59999c0,1.8,0.8,3.20001,1.6,4.10001c0.5,0.60001,1.6,1.2,3.2,1.7
	c1.7,0.60001,2.8,1.10001,3.3,1.2v2.20001H0v-3.20001c1.1-0.09999,2.2-0.29999,3.4-0.59999s2.1-0.8,2.7-1.5c0.9-0.8,1-2.5,1.4-4.2
	l1.3-48.40001c-0.8-0.8-1.7-1.39999-2.8-1.8c-1-0.39999-2.1-0.59999-3.2-0.59999v-2.5h13.4l16.2,47.09999l16.3-47l13.4-0.09999
	v3.09999c-0.6,0.10001-1.5,0.2-2.5,0.40001c-1.1,0.29999-1.8,0.5-2.3,0.7c-1.8,0.8-1.6,2.7-1.6,4.5l0.6,45.2c0,4.3,3.4,6.2,7,6.3
	V224.73419z"/>
<path class="st0" d="M247.2,200.93419c1.90001,6.7,0.60001,15.09999-4.29999,19.8c-9,9-23,7.29999-29.70001-1l-0.2-12.3h2.90001
	c-0.5,8.8,6.7,18.5,15.29999,16.3c3.20001-0.8,8.5-4.70001,9.5-7.90001c1.8-6.3-0.39999-13.09999-5.89999-16.89999
	c-1.5-1-3.7-2.40001-5.7-3.40001c-2-0.89999-3.8-1.79999-5.2-2.59999c-2.90001-1.60001-5.20001-3.7-6.8-6.3
	c-2.90001-4.8-3.7-10.10001-1.60001-15.5c0.8-2.10001,1.90001-3.90001,3.40001-5.60001c1.39999-1.5,3-2.7,4.89999-3.59999
	c6.10001-2.70001,15.89999-2.10001,20.7,2.7l0.2,10.39999h-1.79999C241,167.13419,237.5,162.53418,229.3,162.93419
	c-2.3,0.09999-5,1.7-6.7,3.5c-1.60001,1.79999-2.2,4.79999-2.2,7.39999c0,4.60001,3.09999,9.10001,6.7,11.10001
	c4.59999,2.8,9.7,4.5,14.2,7.7C244,194.63419,246.2,197.43419,247.2,200.93419z"/>
<path class="st1" d="M57.1,18.33418h76.7l-14.5,30.7l-6.2,29.1l21.80001,2.1l3.39999,44.8H57.1V18.33418z"/>
<path class="st2" d="M133.60001,18.33418h60.7v106.7h-56.5l-2.2-45.9l-22.8,0.39999l5.2-30.6L133.60001,18.33418z"/>
<path class="st3" d="M136.60001,102.03418c15.09999-0.3,26.3-3.8,35.2-9.1"/>
<path class="st4" d="M79.6,92.63419c17.10001,8.8,34.9,10.8,53.7,9.6"/>
<path class="st4" d="M94.6,36.03418v16.1"/>
<path class="st3" d="M153,36.03418v16.1"/>
<path class="st3" d="M146.40001,2.03418c-17,20.1-31.7,46.4-33.30001,77.10001h25.00001c-6.3,20.89999-2.90001,44.3,6.7,63.2"/>
</svg>
