<?xml version="1.0" encoding="UTF-8"?>
<svg width="151.62mm" height="136.7mm" version="1.1" viewBox="0 0 151.62 136.7" xmlns="http://www.w3.org/2000/svg" xmlns:xlink="http://www.w3.org/1999/xlink">
 <g transform="translate(75.088 -1023.6)">
  <circle transform="matrix(1 0 -.27933 .9602 0 0)" cx="91.914" cy="568.52" r="0" fill-rule="evenodd" style="paint-order:stroke fill markers"/>
  <g fill="#11298d">
   <g transform="matrix(.26458 0 0 .26458 -208.62 1087.6)"></g>
   <g transform="matrix(1.519 0 0 .69449 35.308 354.49)" fill="#000">
    <g transform="matrix(.40821 0 0 1.1078 -427.45 -290.92)" stroke-width="1.1494" aria-label="INDOWS">
     <path d="m949.66 1278.5v0.5164q-1.2797 0.067-2.0879 0.3592-0.78576 0.2918-1.4144 0.9429-0.87556 0.898-1.0776 2.4919-0.1347 1.1899-0.1347 2.739v16.546q0 1.8634 0.1796 2.941t0.58371 1.7287q0.5837 0.898 1.5042 1.347 0.92046 0.4265 2.4471 0.5163v0.5164h-14.346v-0.5164q1.3021-0.067 2.0879-0.3592 0.80821-0.3143 1.4144-0.9429 0.71841-0.7184 0.96536-1.8184 0.24695-1.1001 0.24695-3.4125v-16.546q0-2.3124-0.24695-3.4125-0.24695-1.1-0.96536-1.8184-0.60616-0.6511-1.4144-0.9429-0.8082-0.2919-2.0879-0.3592v-0.5164z"/>
     <path d="m954.52 1282.6v19.532q0 2.3124 0.24695 3.4125 0.2694 1.1 0.96536 1.8184 0.62861 0.6511 1.4144 0.9429 0.8082 0.2919 2.0879 0.3592v0.5164h-10.35v-0.5164q1.2797-0.067 2.0654-0.3592 0.80821-0.2918 1.4368-0.9429 0.69596-0.7184 0.94291-1.8184 0.26941-1.1226 0.26941-3.4125v-16.568q0-2.2674-0.26941-3.3675-0.24695-1.1225-0.94291-1.8409-0.60615-0.6511-1.4144-0.9429-0.78576-0.2919-2.0879-0.3592v-0.5164h8.6434l18.23 23.258v-16.209q0-2.3124-0.2694-3.4125-0.24695-1.1-0.94291-1.8184-0.62861-0.6511-1.4368-0.9429-0.78576-0.2919-2.0654-0.3592v-0.5164h10.35v0.5164q-2.245 0-3.5022 1.3021-0.69596 0.7184-0.96536 1.8409-0.24696 1.1001-0.24696 3.3675v23.618h-1.0103z"/>
     <path d="m980.67 1308.7q1.3021-0.067 2.0879-0.3592 0.78576-0.2918 1.4144-0.9429 0.69595-0.7184 0.94291-1.8184 0.2694-1.1226 0.2694-3.4125v-16.546q0-2.4695-0.3143-3.6145-0.29186-1.145-1.1674-1.8858-1.1001-0.9205-3.2328-1.0327v-0.5164h12.348q4.1084 0 5.2309 0.09 4.737 0.3592 8.0372 2.694 3.143 2.2226 4.8941 5.8371 1.7512 3.592 1.7512 7.8351 0 3.0982-1.0103 5.8595-0.9878 2.739-2.7614 4.5574-2.492 2.5594-6.2187 3.2553-2.7838 0.5164-5.6799 0.5164h-16.591zm9.6312-29.432v22.316q0 2.2001 0.24696 3.3451 0.24695 1.145 0.92046 1.9532 1.4368 1.7511 4.6696 1.7511 2.7614 0 4.7145-0.898 1.9757-0.9205 3.5247-2.9635 1.5266-1.9756 2.3124-4.5125 0.8082-2.5593 0.8082-5.4329 0-3.188-0.9654-6.0616-0.9653-2.8736-2.7613-5.0288-2.492-2.9859-5.9494-3.9513-1.8858-0.5163-4.8044-0.5163z"/>
     <path d="m1014.2 1294.1q0-3.7717 1.6164-6.9821 1.6164-3.2328 4.7146-5.635 2.3124-1.7735 4.9839-2.7164 2.6716-0.9654 5.3881-0.9654 3.4573 0 6.6902 1.5266 3.2328 1.5042 5.6574 4.2656 3.9513 4.49 3.9513 10.215 0 2.8737-1.0327 5.5452-1.0328 2.6716-3.0084 4.8717-2.4246 2.739-5.7472 4.2431-3.3002 1.5042-6.9147 1.5042-3.5696 0-6.8249-1.4593-3.2553-1.4592-5.6126-4.1308-1.8633-2.0879-2.8736-4.737-0.9878-2.6716-0.9878-5.5452zm5.433 0.3367q0 6.5106 3.5471 10.978 1.594 1.9981 3.3675 2.9185 1.7961 0.898 4.1309 0.898 2.3573 0 4.1308-0.898 1.7961-0.898 3.4125-2.9185 3.5471-4.4901 3.5471-11.068 0-3.6145-0.9878-6.8248-0.9654-3.2329-2.7389-5.4779-1.4368-1.8409-3.2104-2.6716-1.7511-0.8531-4.1533-0.8531-2.3797 0-4.1309 0.8307-1.7286 0.8306-3.2103 2.694-1.7736 2.2226-2.739 5.4554-0.9653 3.2328-0.9653 6.9371z"/>
     <path d="m1045.6 1278.5h14.121v0.5164q-1.9756 0-2.694 0.2918-0.6062 0.2694-0.9879 0.8756-0.3816 0.6061-0.3816 1.3694 0 0.9429 0.7184 2.6043l0.5837 1.3919 6.982 17.062 4.8717-14.705q0.9429-2.8288 0.9429-4.2207 0-1.0327-0.3816-1.9981-0.3592-0.9878-0.9654-1.5939-0.5837-0.5837-1.347-0.8307-0.7408-0.2469-1.9083-0.2469v-0.5164h14.436v0.5164q-1.3246 0-1.9308 0.09-0.5837 0.09-1.1 0.3816-0.6735 0.4041-1.1001 1.1674-0.4041 0.7409-0.4041 1.6164 0 0.8083 0.6286 2.8063l5.5228 17.803 6.1738-15.154q1.4368-3.4798 1.4368-5.3881 0-1.9981-1.3246-2.8287-0.8082-0.4939-2.447-0.4939v-0.5164h10.394v0.5164q-1.5041 0.1571-2.2899 0.5837-0.7633 0.4041-1.5266 1.5041-1.1225 1.5715-2.8063 5.6799l-9.227 22.36h-0.9205l-7.9923-23.91-8.1045 23.91h-1.0103l-10.035-24.156-0.6735-1.6388q-0.6959-1.6614-1.1674-2.4022-0.4714-0.7409-1.1449-1.1674-0.5389-0.3592-1.1675-0.5164-0.6286-0.1571-1.7735-0.2469z"/>
     <path d="m1094 1309.1 0.067-9.2719h0.5163q0.943 3.5471 2.2451 5.5901 2.447 3.7716 6.1513 3.7716 2.5818 0 4.2656-1.7286 1.6838-1.7287 1.6838-4.3778 0-1.145-0.3817-2.3349-0.3592-1.1898-0.9878-2.0429-0.6511-0.8756-1.8409-1.6838-1.1674-0.8082-3.5921-2.043-2.1327-1.0776-3.2777-1.8184-1.1225-0.7409-1.8185-1.5042-1.9307-2.1103-1.9307-5.1411 0-1.8634 0.7409-3.5921 0.7633-1.7286 2.1103-2.9634 2.3797-2.2001 5.635-2.2001 1.0552 0 1.9532 0.2245 0.898 0.202 2.4021 0.8307 1.1226 0.449 1.5267 0.5837 0.4041 0.1122 0.7184 0.1122 0.7857 0 1.0551-1.145h0.5164l0.1571 8.9128h-0.5163q-0.6062-2.1328-1.0552-3.2553-0.4265-1.145-1.0327-2.1103-1.1001-1.7511-2.4246-2.5818-1.3246-0.8531-3.0533-0.8531-2.5144 0-3.9736 1.7062-0.6062 0.696-0.9654 1.6389-0.3368 0.9429-0.3368 1.8858 0 3.7492 4.8268 6.0391l3.1655 1.5266q3.6594 1.7287 5.2758 3.8166 1.841 2.3348 1.841 5.4329 0 2.0655-0.8307 3.9513-1.1674 2.6267-3.5022 4.0635-2.3349 1.4144-5.5004 1.4144-2.896 0-5.5676-1.145-1.3919-0.6062-1.6613-0.696-0.2694-0.09-0.6062-0.09-1.0776 0-1.4817 1.0776z"/>
    </g>
    <g transform="matrix(.40827 0 0 1.1077 -427.45 -290.92)" aria-label="W">
     <path d="m880.33 1271.5h17.507v0.6402q-2.4493 0-3.3399 0.3618-0.75148 0.334-1.2246 1.0855-0.47315 0.7514-0.47315 1.6978 0 1.1689 0.89064 3.2285l0.72365 1.7257 8.656 21.153 6.0397-18.23q1.169-3.5069 1.169-5.2325 0-1.2803-0.47316-2.4771-0.44532-1.2247-1.1968-1.9762-0.72365-0.7236-1.67-1.0298-0.91848-0.3061-2.3658-0.3061v-0.6402h17.896v0.6402q-1.6421 0-2.3936 0.1113-0.72365 0.1113-1.3638 0.4732-0.83498 0.5009-1.3638 1.4472-0.50099 0.9185-0.50099 2.004 0 1.002 0.77932 3.4791l6.8468 22.071 7.654-18.787q1.7813-4.314 1.7813-6.6798 0-2.4771-1.6421-3.5069-1.002-0.6123-3.0338-0.6123v-0.6402h12.887v0.6402q-1.8648 0.1948-2.8389 0.7236-0.94631 0.501-1.8926 1.8648-1.3916 1.9483-3.4791 7.0417l-11.439 27.721h-1.1411l-9.9084-29.642-10.048 29.642h-1.2525l-12.441-29.948-0.83498-2.0317q-0.86281-2.0596-1.4473-2.9781-0.58449-0.9185-1.4195-1.4473-0.66798-0.4453-1.4473-0.6402-0.77931-0.1948-2.1988-0.3061z" fill="#000" stroke-width="1.425"/>
    </g>
   </g>
   <g transform="matrix(0 -.23065 .24618 0 24.413 1090.5)" fill="#000" stroke-width="1.0331" aria-label="Microsoft">
    <path d="m-266.31-402.85q-1.1502 0.0605-1.8564 0.32285-0.68605 0.24213-1.2712 0.82729-0.44391 0.42374-0.66587 0.94837-0.22196 0.50445-0.30267 1.2914-0.14125 1.0492-0.14125 2.4819v14.871q0 2.0783 0.24214 3.0872 0.24213 1.0089 0.86765 1.6142 1.1098 1.0694 3.1276 1.1703v0.46409h-12.894v-0.46409q1.1703-0.0605 1.8766-0.32285 0.72641-0.28249 1.2914-0.84748 0.62552-0.64569 0.84748-1.6344 0.24213-1.0089 0.24213-3.067v-18.039l-10.392 24.375h-0.42374l-10.331-24.012v17.676q0 2.0783 0.22195 3.067 0.24214 0.98872 0.86766 1.6344 0.56498 0.58517 1.2712 0.84748 0.72641 0.26231 1.8766 0.32285v0.46409h-9.302v-0.46409q1.1502-0.0605 1.8564-0.32285 0.7264-0.26231 1.2914-0.84748 0.62552-0.64569 0.84747-1.6344 0.24214-1.0089 0.24214-3.067v-14.871q0-0.92819-0.0605-1.7555-0.10089-1.4932-0.4641-2.1792-0.50445-0.94836-1.3923-1.3923-0.86765-0.46409-2.3205-0.5448v-0.4641h8.7572l8.7371 21.57 9.0599-21.57h8.2932z"/>
    <path d="m-267.76-392.54 5.7911-0.7264v11.663l0.0202 1.5335q0 1.3721 0.16143 2.0178 0.16142 0.62552 0.62551 1.0492 0.56499 0.54481 2.0783 0.8273v0.40356h-8.8985v-0.40356q1.2107-0.16142 1.7353-0.44391 0.52463-0.30267 0.84748-1.0089 0.22196-0.4641 0.30267-1.3923 0.10089-0.94837 0.10089-2.724v-4.984q0-2.0783-0.10089-2.9056-0.10089-0.84747-0.44392-1.3721-0.34302-0.56498-0.82729-0.80712-0.48428-0.26231-1.3923-0.32285zm4.197-7.9299q-0.78694 0-1.3116-0.50445-0.50445-0.50445-0.50445-1.2712 0-0.74659 0.52462-1.251 0.52463-0.52462 1.2914-0.52462 0.76677 0 1.2914 0.52462 0.52462 0.50445 0.52462 1.251 0 0.76676-0.52462 1.2712-0.50445 0.50445-1.2914 0.50445z"/>
    <path d="m-246.14-379.59 0.40356 0.14125q-0.70623 2.1389-2.159 3.0872-1.4528 0.94836-3.9952 0.94836-4.076 0-6.3964-2.4214-2.2599-2.381-2.2599-6.013 0-1.7757 0.62551-3.511 0.62552-1.7353 1.7151-2.9662 1.2309-1.4125 3.0065-2.159 1.7958-0.74659 3.9145-0.74659 2.9258 0 4.5804 1.3116 1.0089 0.80712 1.0089 1.7757 0 0.6457-0.42373 1.0896-0.42374 0.42374-1.0291 0.42374-1.3116 0-1.9371-1.9169-0.2825-0.88783-0.4641-1.2107-0.16142-0.32284-0.48427-0.56498-0.62552-0.46409-1.5335-0.46409-1.1905 0-2.1994 0.66587-0.88783 0.58516-1.5133 1.473-0.60534 0.86766-1.0694 2.1994-0.70623 2.038-0.70623 3.9952 0 1.7958 0.6457 3.511t1.7555 2.8653q1.7353 1.816 4.076 1.816 1.9371 0 3.2083-1.2309 0.6457-0.64569 1.2309-2.0985z"/>
    <path d="m-241.55-390.12q0.72641-1.2712 1.6344-1.9169 1.6748-1.1905 3.8136-1.1905 1.3116 0 1.9976 0.58516 0.62552 0.52463 0.62552 1.2914 0 0.56499-0.38338 0.92819-0.36321 0.3632-0.94837 0.3632-0.68605 0-1.1905-0.56498l-0.62551-0.68605q-0.74659-0.78694-1.7555-0.78694-1.3721 0-2.1389 1.7757-0.76677 1.7757-0.76677 4.9436v3.7733l0.0202 1.5335q0 1.3721 0.16143 2.0178 0.16142 0.62552 0.62551 1.0492 0.56499 0.54481 2.0783 0.8273v0.40356h-8.8985v-0.40356q1.2107-0.16142 1.7353-0.44391 0.52463-0.30267 0.84748-1.0089 0.22196-0.4641 0.30267-1.3923 0.10089-0.94837 0.10089-2.724v-4.984q0-2.0783-0.10089-2.9056-0.10089-0.84747-0.44392-1.3721-0.34302-0.56498-0.8273-0.80712-0.48427-0.26231-1.3923-0.32285v-0.40356l5.1857-0.7264q0.34303 1.8362 0.34303 3.1478z"/>
    <path d="m-235.5-384.29q0-3.2688 2.4214-5.8314 2.946-3.1074 7.0421-3.1074 4.0961 0 7.0219 3.1074 2.4214 2.5828 2.4214 5.8516 0 3.2285-2.3003 5.7507-2.8249 3.1074-7.143 3.1074-4.3181 0-7.1632-3.1074-1.1098-1.2107-1.7151-2.7038-0.58517-1.4932-0.58517-3.067zm3.6724-0.22196q0 3.511 1.5739 5.9525 1.7757 2.724 4.3383 2.724 1.0896 0 2.1187-0.60534t1.7757-1.695q0.78694-1.13 1.2712-2.8249 0.48428-1.7151 0.48428-3.3092 0-1.6546-0.52463-3.3294-0.50445-1.695-1.3721-2.9056-1.6546-2.2801-4.0558-2.2801-2.2801 0-3.9347 2.4012-1.6748 2.4012-1.6748 5.8718z"/>
    <path d="m-216.67-375.77v-5.7104h0.32285q0.56498 2.0985 1.4124 3.3496 1.5537 2.2801 3.632 2.2801 1.2712 0 2.1994-0.76676 1.0089-0.84748 1.0089-2.4012 0-1.2712-0.72641-2.2196-0.40356-0.50445-1.0291-0.92819-0.60534-0.42373-2.0582-1.1905-2.5424-1.3519-3.3899-2.2599-1.2107-1.2914-1.2107-2.9863 0-1.816 1.2107-3.1276 1.3923-1.4932 3.6926-1.4932 1.0291 0 1.9169 0.36321l0.68605 0.30267q0.32285 0.12106 0.56498 0.12106 0.38338 0 0.72641-0.60534h0.40356l0.22196 4.5804h-0.42374q-0.22196-0.96854-0.48427-1.5537-0.24214-0.58516-0.70623-1.13-0.62552-0.76676-1.4528-1.1905-0.82729-0.44391-1.6344-0.44391-1.13 0-1.9371 0.82729-0.78694 0.80712-0.78694 1.9976 0 0.98872 0.70623 1.7958 0.72641 0.78694 2.2196 1.4528l2.1389 0.96854q1.9169 0.86765 2.8653 2.159 0.94836 1.2914 0.94836 3.0469 0 2.1187-1.3721 3.511-1.5739 1.6142-4.0356 1.6142-1.3317 0-2.7038-0.52462-0.88783-0.34303-1.0694-0.38338-0.1816-0.0605-0.46409-0.0605-0.70623 0-1.0694 0.60534z"/>
    <path d="m-206.03-384.29q0-3.2688 2.4214-5.8314 2.946-3.1074 7.0421-3.1074t7.0219 3.1074q2.4214 2.5828 2.4214 5.8516 0 3.2285-2.3003 5.7507-2.8249 3.1074-7.143 3.1074-4.3181 0-7.1632-3.1074-1.1098-1.2107-1.7151-2.7038-0.58516-1.4932-0.58516-3.067zm3.6724-0.22196q0 3.511 1.5739 5.9525 1.7757 2.724 4.3383 2.724 1.0896 0 2.1187-0.60534t1.7757-1.695q0.78694-1.13 1.2712-2.8249 0.48427-1.7151 0.48427-3.3092 0-1.6546-0.52462-3.3294-0.50445-1.695-1.3721-2.9056-1.6546-2.2801-4.0558-2.2801-2.2801 0-3.9347 2.4012-1.6748 2.4012-1.6748 5.8718z"/>
    <path d="m-182.57-392.16v10.553l0.0202 1.5335q0 1.3721 0.16142 2.0178 0.16143 0.62552 0.62552 1.0492 0.56499 0.54481 2.0783 0.8273v0.40356h-8.8985v-0.40356q1.2107-0.16142 1.7353-0.44391 0.52463-0.30267 0.84748-1.0089 0.22195-0.4641 0.30267-1.3923 0.10089-0.94837 0.10089-2.724v-10.412h-2.9258v-0.76676h2.9258v-4.9234q0-1.7757 0.44391-2.8047 0.4641-1.0291 1.6344-1.8967 1.0492-0.76677 2.5626-1.1905 1.5335-0.44392 3.2285-0.44392 1.5739 0 2.5222 0.54481 0.94837 0.5448 0.94837 1.4528 0 0.60534-0.40356 1.0089-0.38338 0.40356-0.94837 0.40356-0.5448 0-0.94836-0.28249-0.40356-0.30267-0.80712-0.96855-0.56498-0.92818-0.92819-1.2107-0.3632-0.30267-0.98872-0.30267-0.76676 0-1.4528 0.32284-0.68605 0.30267-1.0694 0.80712-0.42374 0.56499-0.58517 1.4932-0.16142 0.90801-0.16142 2.6433v5.3472h3.9751v0.76676z"/>
    <path d="m-175.1-392.93h5.1454v0.76676h-5.1454v11.744q0 2.1187 0.72641 3.0267 0.38338 0.50445 1.0089 0.78694 0.62551 0.2825 1.3519 0.2825 0.90801 0 1.5134-0.36321 0.60534-0.38338 1.3318-1.3721l0.30267 0.26231q-0.66588 1.2107-1.8766 1.7958-1.1905 0.58516-2.9863 0.58516-2.381 0-3.4706-0.92818-0.58516-0.48427-0.76676-1.1502-0.1816-0.68605-0.1816-2.4415v-12.228h-2.159v-0.32284q1.3116-0.42374 2.4214-1.6344 0.66587-0.74658 1.0694-1.473 0.40356-0.74659 0.76677-1.9169l0.20178-0.66587h0.74658z"/>
   </g>
   <g transform="matrix(.052023 .022295 -.022295 .052023 -32.348 1016)">
    <path d="m1467 668c-14.148 0-28.724 0.78236-43.772 2.2871l-52.228 5.2227v550.49h98c91.867 0 173.38 11.416 244.94 33.436l75.057 23.094v-542.48l-34.775-15.195c-87.254-38.128-183.62-56.854-287.22-56.854z" color="#000000" fill="#ff0"/>
    <path d="m1465 117c-14.148 0-28.296 0.78787-42.404 2.3555l-51.596 5.7324v543.38l98.418-2.4609c82.417 0.0438 163.34 13.003 243.63 39.143l75.955 24.73v-534.58l-31.875-16.082c-83.693-42.223-181.81-62.217-292.12-62.217z" color="#000000" fill="#008000"/>
    <g fill="#00f">
     <path d="m1371 672.12-65.344 8.3418c-94.314 12.04-193.75 43.088-298.66 91.559v547.35l21.34-8.4434c87.961-34.805 185.51-60.087 292.91-75.521l49.75-7.1504z"/>
     <path d="m779 1152v119l-142 57v-119z"/>
     <path d="m779 964v120l-142 55v-118z"/>
     <path d="m582 1160v99l-125 50v-98z"/>
     <path d="m582 973v99l-125 50v-99z"/>
     <path d="m396 1164v74l-100 40v-72z"/>
     <path d="m396 977v72l-100 41v-72z"/>
     <path d="m225 1128v62l-74 30v-63z"/>
     <path d="m225 933v62l-74 30v-64z"/>
     <path d="m51 1086v52l-55 25v-51z"/>
     <path d="m51 892v51l-55 25v-52z"/>
    </g>
    <g fill="#f00">
     <path d="m1371 119.91-68.852 13.113c-95.5 18.19-193.89 48.168-295.15 89.34v548.52l24.305-11.217c90.148-41.607 186.64-70.041 290.14-85.281l49.551-7.2949z"/>
     <path d="m779 570v119l-142 56v-118z"/>
     <path d="m779 386v118l-142 57v-119z"/>
     <path d="m582 586v98l-125 51v-99z"/>
     <path d="m582 393v99l-125 51v-99z"/>
     <path d="m396 591v72l-100 40v-72z"/>
     <path d="m396 398v73l-100 39v-71z"/>
     <path d="m225 547v62l-74 29v-64z"/>
     <path d="m225 354v63l-74 29v-63z"/>
     <path d="m51 504v52l-55 25v-52z"/>
     <path d="m51 312v53l-55 25v-52z"/>
    </g>
    <g fill="#000">
     <path d="m988 1264v180c-69.333 26.667-128.33 52.333-177 77v-181z"/>
     <path d="m988 1075v168l-177 77v-170z"/>
     <path d="m988 882v172l-177 76v-173z"/>
     <path d="m988 694v167l-177 75v-168z"/>
     <path d="m988 504v169l-177 75v-169z"/>
     <path d="m988 316v167l-177 75v-168z"/>
     <path d="m988 103v193l-177 74v-180c61.333-35.333 120.33-64.333 177-87z"/>
     <path d="m787 1328v141l-166 67v-141z"/>
     <path d="m787 753v141l-166 67v-141z"/>
     <path d="m787 174v141l-166 68v-141z"/>
     <path d="m590 1346v108l-149 60v-107z"/>
     <path d="m590 772v108l-149 59v-108z"/>
     <path d="m590 192v108l-149 60v-107z"/>
     <path d="m402 1351v82l-119 48v-82z"/>
     <path d="m402 776v82l-119 47v-81z"/>
     <path d="m402 197v82l-119 47v-81z"/>
     <path d="m230 1315v68l-92 38v-68z"/>
     <path d="m230 733v68l-92 36v-68z"/>
     <path d="m230 154v69l-92 35v-68z"/>
     <path d="m58 1273v60l-68 28v-57z"/>
     <path d="m58 693v59l-68 28v-57z"/>
     <path d="m58 121v59l-68 28v-58z"/>
     <path d="m1464 0c-149.33 0-301.67 31.667-457 95v190c106-44.667 208-76.333 306-95v427c-108.67 16-210.67 46-306 90v129c110-53.333 212-86 306-98v440c-111.33 16-213.33 42.333-306 79v180c174.67-58.666 332.67-88 474-88 170.67 0 313 37.334 427 112v-1351c-135.33-73.333-283.33-110-444-110zm1 175c103.33 0 192 18.667 266 56v419c-86-28-173.33-42-262-42l-40 1v-432c12-1.3333 24-2 36-2zm2 551c96.667 0 184.67 17.333 264 52v426c-78-24-165.33-36-262-36h-40v-440c13.333-1.3333 26-2 38-2z"/>
    </g>
   </g>
  </g>
 </g>
</svg>
