<!DOCTYPE svg PUBLIC "-//W3C//DTD SVG 1.1//EN" "http://www.w3.org/Graphics/SVG/1.1/DTD/svg11.dtd">
<!-- Uploaded to: SVG Repo, www.svgrepo.com, Transformed by: SVG Repo Mixer Tools -->
<svg version="1.1" id="Layer_1" xmlns="http://www.w3.org/2000/svg" xmlns:xlink="http://www.w3.org/1999/xlink" viewBox="0 0 512 512" xml:space="preserve" width="800px" height="800px" fill="#000000">
<g id="SVGRepo_bgCarrier" stroke-width="0"/>
<g id="SVGRepo_tracerCarrier" stroke-linecap="round" stroke-linejoin="round"/>
<g id="SVGRepo_iconCarrier"> <path style="fill:#FF5023;" d="M512,439.652c0,9.22-7.475,16.696-16.696,16.696H16.696C7.475,456.348,0,448.873,0,439.652V72.348 c0-9.22,7.475-16.696,16.696-16.696h478.609c9.22,0,16.696,7.475,16.696,16.696V439.652z"/> <path style="fill:#CD2A00;" d="M495.304,55.652H183.652v400.696h311.652c9.223,0,16.696-7.473,16.696-16.696V72.348 C512,63.125,504.527,55.652,495.304,55.652z"/> <g> <rect x="166.957" y="55.652" style="fill:#FFDA44;" width="33.391" height="400.696"/> <rect y="222.609" style="fill:#FFDA44;" width="512" height="33.391"/> </g> <g> <path style="fill:#FFC477;" d="M428.522,322.783h-77.913c-9.223,0-16.696-7.473-16.696-16.696s7.473-16.696,16.696-16.696h77.913 c9.223,0,16.696,7.473,16.696,16.696S437.744,322.783,428.522,322.783z"/> <path style="fill:#FFC477;" d="M428.522,389.565h-77.913c-9.223,0-16.696-7.473-16.696-16.696s7.473-16.696,16.696-16.696h77.913 c9.223,0,16.696,7.473,16.696,16.696S437.744,389.565,428.522,389.565z"/> </g> <rect x="183.652" y="222.609" style="fill:#FFA733;" width="328.348" height="33.391"/> <path style="fill:#FFDA44;" d="M300.522,189.217c0-36.826-29.956-66.783-66.783-66.783c-19.954,0-37.84,8.84-50.087,22.755 c-12.247-13.915-30.133-22.755-50.087-22.755c-36.826,0-66.783,29.956-66.783,66.783S96.739,256,133.565,256h16.538 c-15.246,20.231-39.396,33.391-66.625,33.391c-9.223,0-16.696,7.473-16.696,16.696s7.473,16.696,16.696,16.696 c42.537,0,79.728-22.92,100.174-56.983c20.446,34.064,57.637,56.983,100.174,56.983c9.223,0,16.696-7.473,16.696-16.696 s-7.473-16.696-16.696-16.696c-27.228,0-51.378-13.161-66.625-33.391h16.538C270.565,256,300.522,226.044,300.522,189.217z M133.565,222.609c-18.413,0-33.391-14.978-33.391-33.391s14.978-33.391,33.391-33.391s33.391,14.978,33.391,33.391v16.696 c0,5.718-0.583,11.298-1.682,16.696H133.565z M200.348,205.913v-16.696c0-18.413,14.978-33.391,33.391-33.391 s33.391,14.978,33.391,33.391s-14.978,33.391-33.391,33.391H202.03C200.931,217.212,200.348,211.631,200.348,205.913z"/> <g> <rect x="183.652" y="55.652" style="fill:#FFA733;" width="16.696" height="400.696"/> <path style="fill:#FFA733;" d="M283.826,289.391c-27.228,0-51.378-13.161-66.625-33.391h16.538 c36.826,0,66.783-29.956,66.783-66.783s-29.956-66.783-66.783-66.783c-19.954,0-37.84,8.84-50.087,22.755v44.028V256v9.799 c20.446,34.064,57.637,56.983,100.174,56.983c9.223,0,16.696-7.473,16.696-16.696S293.049,289.391,283.826,289.391z M200.348,189.217c0-18.413,14.978-33.391,33.391-33.391s33.391,14.978,33.391,33.391s-14.978,33.391-33.391,33.391H202.03 c-1.1-5.397-1.682-10.978-1.682-16.696V189.217z"/> </g> </g>
</svg>